<?xml version="1.0" encoding="UTF-8" standalone="no"?>
<!-- Created with Inkscape (http://www.inkscape.org/) -->

<svg
   width="32"
   height="32"
   id="svg3360"
   version="1.1"
   inkscape:version="1.3.2 (091e20ef0f, 2023-11-25, custom)"
   viewBox="0 0 32 32"
   sodipodi:docname="fileopenaudio.svg"
   inkscape:export-filename="/home/cannam/code/sv-iconset/align24.png"
   inkscape:export-xdpi="67.5"
   inkscape:export-ydpi="67.5"
   xmlns:inkscape="http://www.inkscape.org/namespaces/inkscape"
   xmlns:sodipodi="http://sodipodi.sourceforge.net/DTD/sodipodi-0.dtd"
   xmlns="http://www.w3.org/2000/svg"
   xmlns:svg="http://www.w3.org/2000/svg"
   xmlns:rdf="http://www.w3.org/1999/02/22-rdf-syntax-ns#"
   xmlns:cc="http://creativecommons.org/ns#"
   xmlns:dc="http://purl.org/dc/elements/1.1/">
  <defs
     id="defs3362">
    <linearGradient
       id="linearGradient4267"
       inkscape:swatch="solid">
      <stop
         style="stop-color:#000000;stop-opacity:1;"
         offset="0"
         id="stop4269" />
    </linearGradient>
  </defs>
  <sodipodi:namedview
     id="base"
     pagecolor="#ffffff"
     bordercolor="#666666"
     borderopacity="1.0"
     inkscape:pageopacity="0.0"
     inkscape:pageshadow="2"
     inkscape:zoom="22.395604"
     inkscape:cx="18.731355"
     inkscape:cy="16.074583"
     inkscape:current-layer="layer1"
     showgrid="true"
     inkscape:grid-bbox="true"
     inkscape:document-units="px"
     inkscape:snap-grids="true"
     showguides="true"
     objecttolerance="20"
     inkscape:snap-bbox="false"
     inkscape:object-nodes="true"
     inkscape:window-width="1295"
     inkscape:window-height="862"
     inkscape:window-x="0"
     inkscape:window-y="0"
     inkscape:window-maximized="0"
     inkscape:showpageshadow="2"
     inkscape:pagecheckerboard="0"
     inkscape:deskcolor="#d1d1d1">
    <inkscape:grid
       type="xygrid"
       id="grid3368"
       spacingx="0.5"
       spacingy="0.5"
       dotted="false"
       empspacing="2"
       originx="0"
       originy="0"
       units="px"
       visible="true" />
  </sodipodi:namedview>
  <metadata
     id="metadata3365">
    <rdf:RDF>
      <cc:Work
         rdf:about="">
        <dc:format>image/svg+xml</dc:format>
        <dc:type
           rdf:resource="http://purl.org/dc/dcmitype/StillImage" />
        <dc:title />
      </cc:Work>
    </rdf:RDF>
  </metadata>
  <g
     id="layer1"
     inkscape:label="Layer 1"
     inkscape:groupmode="layer">
    <path
       style="fill:none;fill-rule:evenodd;stroke:#000000;stroke-width:1px;stroke-linecap:round;stroke-linejoin:bevel;stroke-opacity:1"
       d="m 5.5,24.5 0,-16 19,0 0,3"
       id="path6121"
       inkscape:connector-curvature="0" />
    <rect
       style="fill:#f5f5f5;fill-opacity:1;stroke:#000000;stroke-width:1;stroke-linecap:round;stroke-linejoin:bevel;stroke-miterlimit:4;stroke-dasharray:none;stroke-opacity:1"
       id="rect6665"
       width="13"
       height="9"
       x="12.5"
       y="5.5" />
    <path
       style="fill:none;fill-rule:evenodd;stroke:#d45500;stroke-width:1px;stroke-linecap:square;stroke-linejoin:miter;stroke-opacity:1"
       d="m 13.5,13.5 0,-7 11,0 0,7"
       id="path6667"
       inkscape:connector-curvature="0"
       sodipodi:nodetypes="cccc" />
    <path
       style="fill:none;fill-rule:evenodd;stroke:#000000;stroke-width:1px;stroke-linecap:butt;stroke-linejoin:bevel;stroke-opacity:1"
       d="m 5.5,24.5 18,0 6,-13 -11,0 -3,2 -4.5,0 z"
       id="path6119"
       inkscape:connector-curvature="0"
       sodipodi:nodetypes="ccccccc" />
    <path
       style="fill:none;fill-rule:evenodd;stroke:#000000;stroke-width:0.763568;stroke-linecap:butt;stroke-linejoin:miter;stroke-miterlimit:1.4;stroke-dasharray:none;stroke-dashoffset:0;stroke-opacity:1;marker-start:none;marker-mid:none;marker-end:none"
       d="m 12.440566,11.826962 c 1.551986,0 1.722894,-0.0069 1.722894,-0.0069 0.19775,0.11336 0.535505,-0.768322 0.777475,-1.813114 0.308654,-1.3327206 0.512032,-2.6459024 0.797869,1.292528 0.548173,7.676149 0.742919,3.136852 1.119957,0.382799 C 17.72751,2.7840493 17.815987,6.1290855 18,8 c 0.707587,9.252633 0.677058,11.326207 1.055287,8.253241 0.281079,-2.283669 1.11762,-11.9100358 1.267624,-9.2564253 1.043309,10.5469823 1.229752,9.9248013 1.550262,7.2142643 0.367542,-2.27152 0.598806,-3.911764 0.789995,-4.6050258 0.341448,-1.2381022 0.654728,1.0199908 0.654728,1.0199908 0.195671,1.410308 0.524148,1.264037 0.524148,1.264037 l 1.506003,-0.01829"
       id="path3783"
       sodipodi:nodetypes="ccscccsccsccc"
       inkscape:connector-curvature="0" />
    <path
       style="fill:#c1e9f3;fill-opacity:1;stroke:#d2d2d2;stroke-width:0.04465162;stroke-linecap:square;stroke-linejoin:bevel;stroke-miterlimit:4;stroke-dasharray:none;stroke-opacity:1"
       d="m 6.3533106,23.963451 c 0,-0.01232 1.1151921,-2.252718 2.4782047,-4.978655 l 2.4782047,-4.95625 2.091923,0 c 1.487774,0 2.135758,-0.01517 2.243705,-0.05252 0.08348,-0.02889 0.795028,-0.481071 1.581219,-1.004855 l 1.42944,-0.952334 5.009803,0.01136 5.009804,0.01136 -2.755484,5.971925 -2.755485,5.971926 -8.405667,2.23e-4 c -4.623117,1.31e-4 -8.4056674,-0.0098 -8.4056674,-0.02217 z"
       id="path7209"
       inkscape:connector-curvature="0" />
    <path
       style="fill:#e1f4f9;fill-opacity:1;stroke:#d2d2d2;stroke-width:0.04465162;stroke-linecap:square;stroke-linejoin:bevel;stroke-miterlimit:4;stroke-dasharray:none;stroke-opacity:1"
       d="m 6.0432101,15.624841 -0.00246,-6.5972765 2.9693327,0 2.9693332,0 0,1.9646715 0,1.964671 -0.480005,0.001 c -0.467489,9.82e-4 -0.486362,0.005 -0.72379,0.15277 l -0.243784,0.151761 -2.2430825,4.479835 -2.2430826,4.479836 -0.00246,-6.597277 z"
       id="path7211"
       inkscape:connector-curvature="0" />
  </g>
</svg>
