<?xml version="1.0" encoding="UTF-8" standalone="no"?>
<!-- Created with Inkscape (http://www.inkscape.org/) -->

<svg
   width="32"
   height="32"
   id="svg3360"
   version="1.1"
   inkscape:version="1.3.2 (091e20ef0f, 2023-11-25, custom)"
   viewBox="0 0 32 32"
   sodipodi:docname="fileopenaudio.svg"
   inkscape:export-filename="/home/cannam/code/sv-iconset/align24.png"
   inkscape:export-xdpi="67.5"
   inkscape:export-ydpi="67.5"
   xmlns:inkscape="http://www.inkscape.org/namespaces/inkscape"
   xmlns:sodipodi="http://sodipodi.sourceforge.net/DTD/sodipodi-0.dtd"
   xmlns="http://www.w3.org/2000/svg"
   xmlns:svg="http://www.w3.org/2000/svg"
   xmlns:rdf="http://www.w3.org/1999/02/22-rdf-syntax-ns#"
   xmlns:cc="http://creativecommons.org/ns#"
   xmlns:dc="http://purl.org/dc/elements/1.1/">
  <defs
     id="defs3362">
    <linearGradient
       id="linearGradient4267"
       inkscape:swatch="solid">
      <stop
         style="stop-color:#000000;stop-opacity:1;"
         offset="0"
         id="stop4269" />
    </linearGradient>
  </defs>
  <sodipodi:namedview
     id="base"
     pagecolor="#ffffff"
     bordercolor="#666666"
     borderopacity="1.0"
     inkscape:pageopacity="0.0"
     inkscape:pageshadow="2"
     inkscape:zoom="22.395604"
     inkscape:cx="18.731355"
     inkscape:cy="10.716389"
     inkscape:current-layer="layer1"
     showgrid="true"
     inkscape:grid-bbox="true"
     inkscape:document-units="px"
     inkscape:snap-grids="true"
     showguides="true"
     objecttolerance="20"
     inkscape:snap-bbox="false"
     inkscape:object-nodes="true"
     inkscape:window-width="1295"
     inkscape:window-height="862"
     inkscape:window-x="0"
     inkscape:window-y="0"
     inkscape:window-maximized="0"
     inkscape:showpageshadow="2"
     inkscape:pagecheckerboard="0"
     inkscape:deskcolor="#d1d1d1">
    <inkscape:grid
       type="xygrid"
       id="grid3368"
       spacingx="0.5"
       spacingy="0.5"
       dotted="false"
       empspacing="2"
       originx="0"
       originy="0"
       units="px"
       visible="true" />
  </sodipodi:namedview>
  <metadata
     id="metadata3365">
    <rdf:RDF>
      <cc:Work
         rdf:about="">
        <dc:format>image/svg+xml</dc:format>
        <dc:type
           rdf:resource="http://purl.org/dc/dcmitype/StillImage" />
        <dc:title />
      </cc:Work>
    </rdf:RDF>
  </metadata>
  <g
     id="layer1"
     inkscape:label="Layer 1"
     inkscape:groupmode="layer">
    <path
       style="fill:none;fill-rule:evenodd;stroke:#000000;stroke-width:1px;stroke-linecap:round;stroke-linejoin:bevel;stroke-opacity:1"
       d="m 5.5,24.5 0,-16 19,0 0,3"
       id="path6121"
       inkscape:connector-curvature="0" />
    <rect
       style="opacity:0.999;fill:#ffffff;fill-opacity:1;stroke:none;stroke-width:4.85687;stroke-linecap:round;stroke-linejoin:round"
       id="rect1-6"
       width="2.5"
       height="1"
       x="8.5"
       y="-25"
       ry="0"
       transform="rotate(90)" />
    <path
       style="fill:none;fill-rule:evenodd;stroke:#000000;stroke-width:1px;stroke-linecap:butt;stroke-linejoin:bevel;stroke-opacity:1"
       d="m 5.5,24.5 18,0 6,-13 -11,0 -3,2 -4.5,0 z"
       id="path6119"
       inkscape:connector-curvature="0"
       sodipodi:nodetypes="ccccccc" />
    <rect
       style="opacity:0.999;fill:#ffffff;fill-opacity:1;stroke:none;stroke-width:4.85687;stroke-linecap:round;stroke-linejoin:round"
       id="rect1"
       width="14"
       height="1"
       x="12"
       y="8"
       ry="0" />
    <path
       style="fill:none;fill-rule:evenodd;stroke:#000000;stroke-width:0.876172;stroke-linecap:butt;stroke-linejoin:miter;stroke-miterlimit:1.4;stroke-dasharray:none;stroke-dashoffset:0;stroke-opacity:1;marker-start:none;marker-mid:none;marker-end:none"
       d="m 11.726852,9.4356073 c 1.863298,0 2.068488,-0.0075 2.068488,-0.0075 0.237417,0.124322 0.642922,-0.842621 0.933428,-1.9884459 0.370568,-1.4615974 0.614742,-2.9017666 0.957914,1.4175179 0.65813,8.4184467 0.891941,3.4401927 1.344608,0.419816 1.043012,-9.7587055 1.149236,-6.0901977 1.37016,-4.0383622 0.849521,10.1473849 0.812869,12.4214769 1.266966,9.0513499 0.337461,-2.504505 1.341803,-13.0617598 1.521897,-10.15154 1.252586,11.566895 1.476426,10.884548 1.861226,7.911897 C 23.492808,9.5591613 23.77046,7.7603016 24,7 c 0.409938,-1.3578292 0.78606,1.118626 0.78606,1.118626 0.234919,1.5466873 0.629285,1.3862723 0.629285,1.3862723 l 1.808092,-0.02006"
       id="path3783"
       sodipodi:nodetypes="ccscccsccsccc"
       inkscape:connector-curvature="0" />
    <path
       style="fill:#c1e9f3;fill-opacity:1;stroke:#d2d2d2;stroke-width:0.04465162;stroke-linecap:square;stroke-linejoin:bevel;stroke-miterlimit:4;stroke-dasharray:none;stroke-opacity:1"
       d="m 6.3533106,23.963451 c 0,-0.01232 1.1151921,-2.252718 2.4782047,-4.978655 l 2.4782047,-4.95625 2.091923,0 c 1.487774,0 2.135758,-0.01517 2.243705,-0.05252 0.08348,-0.02889 0.795028,-0.481071 1.581219,-1.004855 l 1.42944,-0.952334 5.009803,0.01136 5.009804,0.01136 -2.755484,5.971925 -2.755485,5.971926 -8.405667,2.23e-4 c -4.623117,1.31e-4 -8.4056674,-0.0098 -8.4056674,-0.02217 z"
       id="path7209"
       inkscape:connector-curvature="0" />
    <path
       style="fill:#e1f4f9;fill-opacity:1;stroke:#d2d2d2;stroke-width:0.04465162;stroke-linecap:square;stroke-linejoin:bevel;stroke-miterlimit:4;stroke-dasharray:none;stroke-opacity:1"
       d="m 6.0432101,15.624841 -0.00246,-6.5972765 2.9693327,0 2.9693332,0 0,1.9646715 0,1.964671 -0.480005,0.001 c -0.467489,9.82e-4 -0.486362,0.005 -0.72379,0.15277 l -0.243784,0.151761 -2.2430825,4.479835 -2.2430826,4.479836 -0.00246,-6.597277 z"
       id="path7211"
       inkscape:connector-curvature="0" />
  </g>
</svg>
