<?xml version="1.0" encoding="UTF-8" standalone="no"?>
<!-- Created with Inkscape (http://www.inkscape.org/) -->

<svg
   xmlns:osb="http://www.openswatchbook.org/uri/2009/osb"
   xmlns:dc="http://purl.org/dc/elements/1.1/"
   xmlns:cc="http://creativecommons.org/ns#"
   xmlns:rdf="http://www.w3.org/1999/02/22-rdf-syntax-ns#"
   xmlns:svg="http://www.w3.org/2000/svg"
   xmlns="http://www.w3.org/2000/svg"
   xmlns:sodipodi="http://sodipodi.sourceforge.net/DTD/sodipodi-0.dtd"
   xmlns:inkscape="http://www.inkscape.org/namespaces/inkscape"
   width="32"
   height="32"
   id="svg3360"
   version="1.1"
   inkscape:version="0.91 r13725"
   viewBox="0 0 32 32"
   sodipodi:docname="navigate.svg"
   inkscape:export-filename="/home/cannam/code/sv-iconset/align24.png"
   inkscape:export-xdpi="67.5"
   inkscape:export-ydpi="67.5">
  <defs
     id="defs3362">
    <linearGradient
       id="linearGradient4267"
       osb:paint="solid">
      <stop
         style="stop-color:#000000;stop-opacity:1;"
         offset="0"
         id="stop4269" />
    </linearGradient>
  </defs>
  <sodipodi:namedview
     id="base"
     pagecolor="#ffffff"
     bordercolor="#666666"
     borderopacity="1.0"
     inkscape:pageopacity="0.0"
     inkscape:pageshadow="2"
     inkscape:zoom="22.395604"
     inkscape:cx="8.8359406"
     inkscape:cy="16.096086"
     inkscape:current-layer="layer1"
     showgrid="true"
     inkscape:grid-bbox="true"
     inkscape:document-units="px"
     inkscape:snap-grids="true"
     showguides="true"
     objecttolerance="20"
     inkscape:snap-bbox="false"
     inkscape:object-nodes="true"
     inkscape:window-width="1727"
     inkscape:window-height="1273"
     inkscape:window-x="405"
     inkscape:window-y="261"
     inkscape:window-maximized="0">
    <inkscape:grid
       type="xygrid"
       id="grid3368"
       spacingx="0.5"
       spacingy="0.5"
       dotted="false"
       empspacing="2" />
  </sodipodi:namedview>
  <metadata
     id="metadata3365">
    <rdf:RDF>
      <cc:Work
         rdf:about="">
        <dc:format>image/svg+xml</dc:format>
        <dc:type
           rdf:resource="http://purl.org/dc/dcmitype/StillImage" />
        <dc:title />
      </cc:Work>
    </rdf:RDF>
  </metadata>
  <g
     id="layer1"
     inkscape:label="Layer 1"
     inkscape:groupmode="layer">
    <path
       style="fill:#000000"
       d="M 10.723258,20.874877 C 9.5,18 9,17.5 7.9348327,15.60359 5.9867594,12.135266 7.2325951,10.270919 9.402806,11.513247 12,13 12,15 12.310059,9.0169913 12.445128,6.410649 13,3.3302257 14.765407,3.1960864 16.003696,3.1019986 16.5,5.5 16.818891,7.5491593 16.920091,8.1994627 16.924312,10.445287 17.296555,9.736159 17.776742,8.8213935 19,8.5 19.229342,10.955471 c 0.01887,0.201998 1.099326,-0.835176 1.599046,-0.850414 0.628861,-0.01918 0.789027,0.744793 0.936785,1.814267 0.151932,1.099689 0.698058,-0.429509 1.460545,0.0893 C 23.689096,12.323913 25,13.5 24.542149,15.378195 23.535236,19.508749 22.5,21 20.672457,21.752138 20.115947,21.981174 20.289523,20.842586 21.282891,19.565155 22.5,18 22.5,18.5 23.139053,16.187779 23.937264,13.299695 22.5,13 22.042149,13.6875 21.01572,15.228766 20.397139,15.01732 20.747497,12.973197 21,11.5 20.5,11 19.765407,12.392848 c -0.925726,1.755254 -1.439229,1.711318 -1.473258,0.04465 -0.03403,-1.666667 -0.753436,-2.378784 -1.205348,-0.446516 C 16.5,14.5 15.825815,13.332776 15.81129,10.249998 15.80076,8.0156226 15.408255,5.0265554 14.720755,5.0265554 c -0.6875,0 -1.446496,3.5515672 -1.46836,6.4734426 -0.03506,4.685431 -0.23576,5.054295 -1.700304,3.125 -0.913302,-1.203125 -2.2543871,-2.053545 -2.7073181,-2.053545 -1.347054,0 0.2980141,3.36574 2.1749181,5.75828 0.983789,1.254061 2.378677,5.357765 2.034927,5.357765 -0.34375,2e-6 -1.703221,-1.33638 -2.33136,-2.812621 z"
       id="path5361"
       inkscape:connector-curvature="0"
       sodipodi:nodetypes="ssssssssssssssssssssssssssss" />
    <rect
       style="fill:#f3f3f3;fill-opacity:1;stroke:#000000;stroke-width:1.20000005;stroke-linecap:square;stroke-linejoin:round;stroke-miterlimit:4;stroke-dasharray:none;stroke-opacity:1"
       id="rect5363"
       width="10"
       height="4.5"
       x="11.5"
       y="22"
       ry="0" />
    <path
       style="fill:#cccccc;fill-opacity:1;stroke:#000000;stroke-width:0.04465162;stroke-linecap:square;stroke-linejoin:round;stroke-miterlimit:4;stroke-dasharray:none;stroke-opacity:1"
       d="M 12.507024,21.335587 C 12.035186,20.075771 11.467777,18.913746 11.040768,18.332766 10.031396,16.959435 9.5209978,16.15013 9.0273203,15.140175 8.2266721,13.502226 8.1619588,12.605181 8.8444447,12.605181 c 0.5670556,0 1.8420783,0.97812 2.7448283,2.105666 0.708795,0.885292 0.975417,1.10318 1.215867,0.993624 0.237071,-0.108017 0.349298,-0.658954 0.418663,-2.055282 0.02514,-0.506111 0.04605,-1.291926 0.04647,-1.746256 0.0019,-2.0588751 0.305319,-4.3406669 0.762355,-5.7329268 0.449719,-1.3699698 0.85789,-1.4677059 1.242077,-0.2974141 0.264167,0.8046917 0.435102,2.1687578 0.495494,3.9540401 0.06877,2.0330378 0.159084,2.8001018 0.385084,3.2707008 0.07855,0.163573 0.145847,0.242745 0.222723,0.262039 0.240677,0.06041 0.431742,-0.27735 0.691895,-1.223098 0.219094,-0.796488 0.323945,-1.049883 0.493438,-1.192502 0.166651,-0.140227 0.292842,-0.09905 0.426302,0.139101 0.157985,0.281916 0.235578,0.661902 0.281925,1.380641 0.05028,0.779788 0.12918,1.102348 0.296427,1.211932 0.109114,0.07149 0.123727,0.0709 0.275833,-0.01129 0.224352,-0.121227 0.515371,-0.500267 0.873036,-1.137092 0.329014,-0.585814 0.620953,-0.936692 0.779353,-0.936692 0.06221,0 0.129704,0.05263 0.186093,0.145118 0.113154,0.185585 0.119621,0.737475 0.01685,1.438234 -0.158145,1.078379 -0.0126,1.6292 0.402937,1.524907 0.164335,-0.04124 0.499414,-0.367007 0.792653,-0.770613 0.265527,-0.365464 0.407932,-0.486811 0.595457,-0.507406 0.212739,-0.02336 0.336859,0.0079 0.467374,0.117722 0.449268,0.378034 0.512886,1.286452 0.179151,2.558119 -0.358927,1.367655 -0.55809,1.851728 -0.96772,2.35208 -0.864478,1.055939 -1.176585,1.464295 -1.365026,1.785984 -0.196981,0.336267 -0.394222,0.81348 -0.455093,1.101071 l -0.02599,0.122792 -3.884946,0 -3.884945,0 -0.04599,-0.122792 z"
       id="path5365"
       inkscape:connector-curvature="0" />
  </g>
</svg>
