<?xml version="1.0" encoding="UTF-8" standalone="no"?>
<!-- Created with Inkscape (http://www.inkscape.org/) -->

<svg
   xmlns:osb="http://www.openswatchbook.org/uri/2009/osb"
   xmlns:dc="http://purl.org/dc/elements/1.1/"
   xmlns:cc="http://creativecommons.org/ns#"
   xmlns:rdf="http://www.w3.org/1999/02/22-rdf-syntax-ns#"
   xmlns:svg="http://www.w3.org/2000/svg"
   xmlns="http://www.w3.org/2000/svg"
   xmlns:sodipodi="http://sodipodi.sourceforge.net/DTD/sodipodi-0.dtd"
   xmlns:inkscape="http://www.inkscape.org/namespaces/inkscape"
   width="32"
   height="32"
   id="svg3360"
   version="1.1"
   inkscape:version="0.91 r13725"
   viewBox="0 0 32 32"
   sodipodi:docname="navigate.svg"
   inkscape:export-filename="/home/cannam/code/sv-iconset/align24.png"
   inkscape:export-xdpi="67.5"
   inkscape:export-ydpi="67.5">
  <defs
     id="defs3362">
    <linearGradient
       id="linearGradient4267"
       osb:paint="solid">
      <stop
         style="stop-color:#000000;stop-opacity:1;"
         offset="0"
         id="stop4269" />
    </linearGradient>
  </defs>
  <sodipodi:namedview
     id="base"
     pagecolor="#ffffff"
     bordercolor="#666666"
     borderopacity="1.0"
     inkscape:pageopacity="0.0"
     inkscape:pageshadow="2"
     inkscape:zoom="22.395604"
     inkscape:cx="8.8359406"
     inkscape:cy="16.096086"
     inkscape:current-layer="layer1"
     showgrid="true"
     inkscape:grid-bbox="true"
     inkscape:document-units="px"
     inkscape:snap-grids="true"
     showguides="true"
     objecttolerance="20"
     inkscape:snap-bbox="false"
     inkscape:object-nodes="false"
     inkscape:window-width="1727"
     inkscape:window-height="1273"
     inkscape:window-x="915"
     inkscape:window-y="190"
     inkscape:window-maximized="0"
     inkscape:snap-nodes="false">
    <inkscape:grid
       type="xygrid"
       id="grid3368"
       spacingx="0.5"
       spacingy="0.5"
       dotted="false"
       empspacing="2" />
  </sodipodi:namedview>
  <metadata
     id="metadata3365">
    <rdf:RDF>
      <cc:Work
         rdf:about="">
        <dc:format>image/svg+xml</dc:format>
        <dc:type
           rdf:resource="http://purl.org/dc/dcmitype/StillImage" />
        <dc:title />
      </cc:Work>
    </rdf:RDF>
  </metadata>
  <g
     id="layer1"
     inkscape:label="Layer 1"
     inkscape:groupmode="layer">
    <g
       id="g6001">
      <path
         sodipodi:nodetypes="csssssssssssscccsscssssscsccc"
         inkscape:connector-curvature="0"
         id="path5999"
         d="M 12.484563,21.282202 C 12.24127,20.600016 11.740791,19.480327 11.441372,18.948338 11.337959,18.764599 11.038173,18.322916 10.775182,17.966819 9.092575,15.688523 7.7021564,13.735801 7.8889086,12.991721 c 0.093016,-0.370604 0.8360708,-0.75159 1.4823448,-0.432493 0.7790516,0.384652 1.4955416,1.271596 2.0558806,1.960684 0.971224,1.194382 1.32281,1.369477 1.598774,0.796213 0.233722,-0.485514 -0.146727,-1.157762 -0.01993,-3.734485 0.102026,-2.0733417 0.332005,-3.5246962 0.610091,-4.9068462 0.266057,-1.3223664 0.936428,-2.4160193 1.243377,-2.4160193 0.51932,0 1.165131,2.6418836 1.383073,5.4030014 0.162236,2.0553721 0.166276,2.8454031 0.364189,2.9768121 0.20807,0.138153 0.207183,-0.360657 0.966623,-1.998934 0.24495,-0.528409 0.843166,-0.8237696 1.032111,-0.7547755 1.009851,0.1787635 1.065802,1.7642755 1.166697,2.5674725 0.08475,0.67496 -0.140945,1.266929 -0.04475,1.452945 0.05396,0.104351 0.09819,0.132187 0.210052,0.132187 0.192969,0 0.244935,-0.744929 0.592027,-1.330494 0.274448,-0.463008 0.699701,-0.255586 1.000115,-0.303624 0.346427,-0.0554 0.802894,0.380044 0.959888,0.989858 0.09045,0.351325 0.429546,1.616087 0.429546,1.771635 1.34e-4,2.241653 -1.00123,2.574495 -1.345317,3.494068 -0.269029,0.718983 -0.396597,0.96554 -0.817618,1.580255 -0.208415,0.304297 -0.444966,0.680971 -0.525668,0.837053 l -0.05743,0.507043 -3.919581,0.04483 c -3.564827,0.04077 -3.742598,-0.27231 -3.768843,-0.34588 l 0,-1.3e-5 z"
         style="fill:#cccccf;fill-opacity:0.94117647;stroke:none;stroke-width:1.20000005;stroke-linecap:butt;stroke-linejoin:round;stroke-miterlimit:4;stroke-dasharray:none;stroke-opacity:1" />
      <path
         sodipodi:nodetypes="csscssssccccccsssssssssc"
         inkscape:connector-curvature="0"
         id="path5361"
         d="M 10.991168,20.294406 C 9.857213,18.089303 9.2232581,17.5 8.1580908,15.60359 6.2100175,12.135266 7.7573752,10.634396 9.8493222,12.004415 c 3.0883618,2.022572 2.3491218,2.996565 2.6393428,-3.0767269 0.356347,-2.7850507 0.555987,-5.4188559 2.276742,-5.7316017 1.221842,-0.2220687 1.462437,1.7986128 2.098136,3.7726018 0.324458,1.0075164 0.239375,3.2979928 0.611618,2.5888643 0.480187,-0.9147655 1.54329,-1.6285573 2.513259,0.6388405 0.538568,1.258955 -0.327689,2.238865 1.556232,1.018034 1.391738,-0.334909 1.969794,2.691452 2.059813,4.029815 -0.203184,2.567747 -1.516747,5.125348 -2.351537,6.463245 -1.544985,0.752612 -1.880869,0.451366 -0.01469,-2.142331 0.55309,-1.306275 1.118974,-2.324232 1.275691,-4.270408 -0.400258,-2.183387 -0.406962,-3.11614 -1.51393,-2.61614 -1.098135,2.035819 -1.332972,1.558987 -1.502257,0.07145 -0.288915,-2.538741 -1.041784,-3.6216091 -1.78582,-1.875368 -0.972491,2.282425 -1.310058,2.669961 -1.498768,-0.580041 -0.129522,-2.2306435 -0.760248,-5.6253076 -1.447748,-5.6253076 -0.6875,0 -1.357193,3.5069156 -1.379057,6.4287906 -0.03506,4.685431 -0.369715,5.45616 -1.834259,3.526865 -0.913302,-1.203125 -2.388342,-2.008893 -2.841273,-2.008893 -1.347054,0 0.431969,3.321088 2.308873,5.713628 0.983789,1.254061 2.378677,5.357765 2.034927,5.357765 -0.34375,2e-6 -1.643066,-1.844827 -2.063449,-3.393091 z"
         style="fill:#000000" />
      <rect
         ry="0"
         y="22"
         x="11.5"
         height="4.5"
         width="10"
         id="rect5363"
         style="fill:#f3f3f3;fill-opacity:1;stroke:#000000;stroke-width:1.20000005;stroke-linecap:square;stroke-linejoin:round;stroke-miterlimit:4;stroke-dasharray:none;stroke-opacity:1" />
    </g>
  </g>
</svg>
