<?xml version="1.0" encoding="UTF-8" standalone="no"?>
<!-- Created with Inkscape (http://www.inkscape.org/) -->

<svg
   xmlns:osb="http://www.openswatchbook.org/uri/2009/osb"
   xmlns:dc="http://purl.org/dc/elements/1.1/"
   xmlns:cc="http://creativecommons.org/ns#"
   xmlns:rdf="http://www.w3.org/1999/02/22-rdf-syntax-ns#"
   xmlns:svg="http://www.w3.org/2000/svg"
   xmlns="http://www.w3.org/2000/svg"
   xmlns:sodipodi="http://sodipodi.sourceforge.net/DTD/sodipodi-0.dtd"
   xmlns:inkscape="http://www.inkscape.org/namespaces/inkscape"
   width="32"
   height="32"
   id="svg3360"
   version="1.1"
   inkscape:version="0.91 r13725"
   viewBox="0 0 32 32"
   sodipodi:docname="navigate.svg"
   inkscape:export-filename="/home/cannam/code/sv-iconset/align24.png"
   inkscape:export-xdpi="67.5"
   inkscape:export-ydpi="67.5">
  <defs
     id="defs3362">
    <linearGradient
       id="linearGradient4267"
       osb:paint="solid">
      <stop
         style="stop-color:#000000;stop-opacity:1;"
         offset="0"
         id="stop4269" />
    </linearGradient>
  </defs>
  <sodipodi:namedview
     id="base"
     pagecolor="#ffffff"
     bordercolor="#666666"
     borderopacity="1.0"
     inkscape:pageopacity="0.0"
     inkscape:pageshadow="2"
     inkscape:zoom="22.395604"
     inkscape:cx="17.252771"
     inkscape:cy="16.096086"
     inkscape:current-layer="layer1"
     showgrid="true"
     inkscape:grid-bbox="true"
     inkscape:document-units="px"
     inkscape:snap-grids="true"
     showguides="true"
     objecttolerance="20"
     inkscape:snap-bbox="false"
     inkscape:object-nodes="true"
     inkscape:window-width="1727"
     inkscape:window-height="1273"
     inkscape:window-x="405"
     inkscape:window-y="261"
     inkscape:window-maximized="0">
    <inkscape:grid
       type="xygrid"
       id="grid3368"
       spacingx="0.5"
       spacingy="0.5"
       dotted="false"
       empspacing="2" />
  </sodipodi:namedview>
  <metadata
     id="metadata3365">
    <rdf:RDF>
      <cc:Work
         rdf:about="">
        <dc:format>image/svg+xml</dc:format>
        <dc:type
           rdf:resource="http://purl.org/dc/dcmitype/StillImage" />
        <dc:title></dc:title>
      </cc:Work>
    </rdf:RDF>
  </metadata>
  <g
     id="layer1"
     inkscape:label="Layer 1"
     inkscape:groupmode="layer">
    <g
       id="g5367"
       transform="translate(1,1)">
      <path
         sodipodi:nodetypes="ssssssssssssssssssssssssssss"
         inkscape:connector-curvature="0"
         id="path5361"
         d="M 9.7232581,19.874877 C 8.5,17 8,16.5 6.9348327,14.60359 4.9867594,11.135266 6.2325951,9.2709187 8.402806,10.513247 11,12 11,14 11.310059,8.0169913 11.445128,5.410649 12,2.3302257 13.765407,2.1960864 15.003696,2.1019986 15.5,4.5 15.818891,6.5491593 c 0.1012,0.6503034 0.105421,2.896128 0.477664,2.1869997 C 16.776742,7.8213935 18,7.5 18.229342,9.9554706 c 0.01887,0.2019984 1.099326,-0.835176 1.599046,-0.8504134 0.628861,-0.019175 0.789027,0.7447931 0.936785,1.8142668 0.151932,1.099689 0.698058,-0.429509 1.460545,0.0893 C 22.689096,11.323913 24,12.5 23.542149,14.378195 22.535236,18.508749 21.5,20 19.672457,20.752138 19.115947,20.981174 19.289523,19.842586 20.282891,18.565155 21.5,17 21.5,17.5 22.139053,15.187779 22.937264,12.299695 21.5,12 21.042149,12.6875 20.01572,14.228766 19.397139,14.01732 19.747497,11.973197 20,10.5 19.5,10 18.765407,11.392848 17.839681,13.148102 17.326178,13.104166 17.292149,11.437498 17.258119,9.770831 16.538713,9.0587137 16.086801,10.990982 15.5,13.5 14.825815,12.332776 14.81129,9.2499976 14.80076,7.0156226 14.408255,4.0265554 13.720755,4.0265554 c -0.6875,0 -1.446496,3.5515672 -1.46836,6.4734426 -0.03506,4.685431 -0.23576,5.054295 -1.700304,3.125 -0.913302,-1.203125 -2.2543871,-2.053545 -2.7073181,-2.053545 -1.347054,0 0.2980141,3.36574 2.1749181,5.75828 0.983789,1.254061 2.378677,5.357765 2.034927,5.357765 -0.34375,2e-6 -1.703221,-1.33638 -2.3313599,-2.812621 z"
         style="fill:#000000" />
      <rect
         ry="0"
         y="21"
         x="10.5"
         height="4.5"
         width="10"
         id="rect5363"
         style="fill:#f8f8f8;fill-opacity:1;stroke:#000000;stroke-width:1;stroke-linecap:square;stroke-linejoin:round;stroke-miterlimit:4;stroke-dasharray:none;stroke-opacity:1" />
      <path
         inkscape:connector-curvature="0"
         id="path5365"
         d="M 11.507024,20.335587 C 11.035186,19.075771 10.467777,17.913746 10.040768,17.332766 9.0313962,15.959435 8.5209978,15.15013 8.0273203,14.140175 7.2266721,12.502226 7.1619588,11.605181 7.8444447,11.605181 c 0.5670556,0 1.8420778,0.97812 2.7448283,2.105666 0.708795,0.885292 0.975417,1.10318 1.215867,0.993624 0.237071,-0.108017 0.349298,-0.658954 0.418663,-2.055282 0.02514,-0.506111 0.04605,-1.291926 0.04647,-1.746256 0.0019,-2.0588751 0.305319,-4.3406669 0.762355,-5.7329268 0.449719,-1.3699698 0.85789,-1.4677059 1.242077,-0.2974141 0.264167,0.8046917 0.435102,2.1687578 0.495494,3.9540401 0.06877,2.0330378 0.159084,2.8001018 0.385084,3.2707008 0.07855,0.163573 0.145847,0.242745 0.222723,0.262039 0.240677,0.06041 0.431742,-0.27735 0.691895,-1.223098 0.219094,-0.796488 0.323945,-1.049883 0.493438,-1.192502 0.166651,-0.1402271 0.292842,-0.099051 0.426302,0.139101 0.157985,0.281916 0.235578,0.661902 0.281925,1.380641 0.05028,0.779788 0.12918,1.102348 0.296427,1.211932 0.109114,0.07149 0.123727,0.0709 0.275833,-0.01129 0.224352,-0.121227 0.515371,-0.500267 0.873036,-1.137092 0.329014,-0.585814 0.620953,-0.936692 0.779353,-0.936692 0.06221,0 0.129704,0.05263 0.186093,0.145118 0.113154,0.185585 0.119621,0.737475 0.01685,1.438234 -0.158145,1.078379 -0.0126,1.6292 0.402937,1.524907 0.164335,-0.04124 0.499414,-0.367007 0.792653,-0.770613 0.265527,-0.365464 0.407932,-0.486811 0.595457,-0.507406 0.212739,-0.02336 0.336859,0.0079 0.467374,0.117722 0.449268,0.378034 0.512886,1.286452 0.179151,2.558119 -0.358927,1.367655 -0.55809,1.851728 -0.96772,2.35208 -0.864478,1.055939 -1.176585,1.464295 -1.365026,1.785984 -0.196981,0.336267 -0.394222,0.81348 -0.455093,1.101071 l -0.02599,0.122792 -3.884946,0 -3.884945,0 -0.04599,-0.122792 z"
         style="fill:#e7e7e7;fill-opacity:1;stroke:#000000;stroke-width:0.04465162;stroke-linecap:square;stroke-linejoin:round;stroke-miterlimit:4;stroke-dasharray:none;stroke-opacity:1" />
    </g>
  </g>
</svg>
