<?xml version="1.0" encoding="UTF-8" standalone="no"?>
<!-- Created with Inkscape (http://www.inkscape.org/) -->

<svg
   xmlns:osb="http://www.openswatchbook.org/uri/2009/osb"
   xmlns:dc="http://purl.org/dc/elements/1.1/"
   xmlns:cc="http://creativecommons.org/ns#"
   xmlns:rdf="http://www.w3.org/1999/02/22-rdf-syntax-ns#"
   xmlns:svg="http://www.w3.org/2000/svg"
   xmlns="http://www.w3.org/2000/svg"
   xmlns:sodipodi="http://sodipodi.sourceforge.net/DTD/sodipodi-0.dtd"
   xmlns:inkscape="http://www.inkscape.org/namespaces/inkscape"
   width="32"
   height="32"
   id="svg3360"
   version="1.1"
   inkscape:version="0.91 r13725"
   viewBox="0 0 32 32"
   sodipodi:docname="spectrogram.svg"
   inkscape:export-filename="/home/cannam/code/sv-iconset/align24.png"
   inkscape:export-xdpi="67.5"
   inkscape:export-ydpi="67.5">
  <defs
     id="defs3362">
    <linearGradient
       id="linearGradient4267"
       osb:paint="solid">
      <stop
         style="stop-color:#000000;stop-opacity:1;"
         offset="0"
         id="stop4269" />
    </linearGradient>
  </defs>
  <sodipodi:namedview
     id="base"
     pagecolor="#ffffff"
     bordercolor="#666666"
     borderopacity="1.0"
     inkscape:pageopacity="0.0"
     inkscape:pageshadow="2"
     inkscape:zoom="22.395604"
     inkscape:cx="16.803238"
     inkscape:cy="21.870828"
     inkscape:current-layer="layer1"
     showgrid="true"
     inkscape:grid-bbox="true"
     inkscape:document-units="px"
     inkscape:snap-grids="true"
     showguides="true"
     objecttolerance="20"
     inkscape:snap-bbox="false"
     inkscape:object-nodes="true"
     inkscape:window-width="1727"
     inkscape:window-height="1273"
     inkscape:window-x="544"
     inkscape:window-y="296"
     inkscape:window-maximized="0">
    <inkscape:grid
       type="xygrid"
       id="grid3368"
       spacingx="0.5"
       spacingy="0.5"
       dotted="false"
       empspacing="2" />
  </sodipodi:namedview>
  <metadata
     id="metadata3365">
    <rdf:RDF>
      <cc:Work
         rdf:about="">
        <dc:format>image/svg+xml</dc:format>
        <dc:type
           rdf:resource="http://purl.org/dc/dcmitype/StillImage" />
        <dc:title></dc:title>
      </cc:Work>
    </rdf:RDF>
  </metadata>
  <g
     id="layer1"
     inkscape:label="Layer 1"
     inkscape:groupmode="layer">
    <g
       id="g4221"
       transform="matrix(0.57624133,0,0,0.76491054,4.9503468,3.9953939)">
      <path
         style="fill:#f6c704"
         d="M -1.6506958,15.69112 -1.6506958,0 19.174652,0 40,0 l 0,15.69112 0,15.69112 -20.825348,0 -20.8253478,0 0,-15.69112 z"
         id="path4231"
         inkscape:connector-curvature="0" />
      <path
         style="fill:#bf2726"
         d="M -1.6506958,15.69112 -1.6506958,0 19.174652,0 40,0 l 0,15.69112 0,15.69112 -20.825348,0 -20.8253478,0 0,-15.69112 z m 4.8257732,5.873133 c 0.6717143,-0.227174 0.9636101,-0.468336 0.7841159,-0.647831 -0.092166,-0.09217 -1.076642,-0.235134 -2.5935585,-0.376642 -1.26686892,-0.118182 -1.74407617,-0.01658 -1.90617534,0.405844 -0.12358485,0.322057 0.0534273,0.728354 0.37190353,0.853634 0.48744583,0.191745 2.50015441,0.05029 3.34371441,-0.235005 z M 13.849698,21.32246 c 0.916564,-0.311798 0.342258,-0.547948 -1.424535,-0.58576 -1.212119,-0.02594 -1.730639,0.06773 -1.730639,0.312649 0,0.153984 0.40829,0.332129 1.038383,0.453066 0.45094,0.08655 1.62736,-0.01346 2.116791,-0.179955 z M 8.3870066,16.894477 c 0.4759255,-0.03317 1.0617994,-0.09078 1.3019421,-0.12802 0.4235373,-0.06568 0.4305623,-0.07441 0.2343755,-0.291194 -0.1532861,-0.16938 -0.292392,-0.20657 -0.5746113,-0.153625 -0.3000302,0.05629 -0.3970228,0.02378 -0.4993067,-0.16734 -0.069819,-0.130457 -0.095518,-0.288041 -0.05711,-0.350187 0.095836,-0.155065 0.4424697,-0.142089 0.6072923,0.02273 0.1040493,0.104049 0.1834826,0.09468 0.3403588,-0.04015 0.1125488,-0.09673 0.2987827,-0.20936 0.4138537,-0.250286 0.118808,-0.04225 0.174116,-0.131211 0.127986,-0.205851 -0.05582,-0.09032 -0.3919492,-0.111136 -1.0745393,-0.06653 -0.7716894,0.05043 -1.1948725,0.01414 -1.8967543,-0.162641 -1.1186036,-0.281742 -1.323412,-0.229103 -1.4183392,0.36454 -0.092238,0.576821 -0.281846,0.726936 -1.0109193,0.800347 -0.4992798,0.05027 -0.5956626,0.09873 -0.6264062,0.314933 -0.037687,0.265032 0.071636,0.319125 0.8439653,0.417594 0.358457,0.0457 1.7849466,4.62e-4 3.2882129,-0.104322 z m -0.626488,-0.959532 c -0.104877,-0.169695 0.2696705,-0.416041 0.4136482,-0.272063 0.06793,0.06793 0.088625,0.17995 0.045989,0.248937 -0.093453,0.151211 -0.3718205,0.165216 -0.4596372,0.02313 z m 13.2414684,0.854621 c 1.406308,-0.05557 2.133905,-0.125442 2.061388,-0.197959 -0.118323,-0.118323 -0.728268,-0.171971 -2.932304,-0.257916 -0.743105,-0.02898 -1.456993,-0.109357 -1.586418,-0.178623 -0.320987,-0.171786 -0.295724,-0.441374 0.05639,-0.601808 0.211616,-0.09642 0.251215,-0.158614 0.14422,-0.226512 -0.172424,-0.109418 -1.37172,-0.129259 -1.637944,-0.0271 -0.310298,0.119073 -0.201592,0.276006 0.192471,0.277863 0.520964,0.0025 0.750354,0.158271 0.563845,0.382999 -0.104262,0.125628 -0.329442,0.162002 -0.840531,0.135769 -0.826558,-0.04242 -1.036509,-0.185 -0.745668,-0.506375 0.193727,-0.214065 0.187203,-0.226262 -0.181559,-0.339458 -0.210377,-0.06458 -0.797859,-0.14712 -1.305513,-0.183426 -1.108919,-0.07931 -1.499886,0.07355 -1.499886,0.586416 0,0.249979 -0.06038,0.334701 -0.258581,0.362859 -0.264679,0.0376 -0.606738,0.419776 -0.606738,0.677893 0,0.07925 0.155039,0.184517 0.344532,0.233924 0.341666,0.08908 4.051873,0.02664 8.232292,-0.138546 z m -8.519136,-1.213822 c -0.03922,-0.06346 -0.159101,-0.114581 -0.266406,-0.113609 -0.168133,0.0015 -0.171179,0.01722 -0.02203,0.113609 0.225949,0.14602 0.378684,0.14602 0.28844,0 z m 7.24195,-4.367451 c 2.204484,-0.05795 3.479527,-0.135266 3.560143,-0.215882 0.229312,-0.22931 -1.103685,-0.408889 -2.606394,-0.351128 -0.885458,0.03404 -1.761023,-0.0052 -2.416672,-0.108167 -1.490006,-0.234103 -2.836942,2.86e-4 -2.836942,0.493675 0,0.210966 0.355399,0.394212 0.634567,0.327187 0.126914,-0.03047 1.776297,-0.09603 3.665298,-0.145685 z m 6.285873,-3.5526987 c 0.269691,-0.039143 0.490347,-0.1118222 0.490347,-0.1615095 0,-0.126227 -1.117455,-0.1978415 -5.307291,-0.3401289 L 17.55939,7.0305331 17.355744,7.2799108 c -0.166796,0.2042526 -0.177234,0.2812515 -0.05769,0.4255233 0.12807,0.1545582 0.640851,0.1666589 4.184114,0.098737 2.220986,-0.042575 4.258812,-0.1094342 4.528504,-0.1485771 z M 8.9061981,2.942085 c 0,-0.1456081 -0.4560574,-0.2139249 -0.8193665,-0.1227401 C 7.5958426,2.9425753 7.7815574,3.1296253 8.3581626,3.0926264 8.6595821,3.0732854 8.9061981,3.0055414 8.9061981,2.942085 Z M 11.897289,3.01382 c 0.08196,-0.1326082 -0.499196,-0.2447992 -1.268065,-0.2447992 -0.585167,0 -0.9074783,0.1450419 -0.59883,0.2694767 0.252113,0.1016419 1.801483,0.081162 1.866895,-0.024677 z m 3.277725,2.423e-4 C 15.406609,2.867254 15.066349,2.7690212 14.326238,2.7690212 c -0.581119,0 -0.8357,0.1039092 -0.667263,0.2723471 0.108573,0.108573 1.336577,0.086455 1.516039,-0.027306 z m 5.194559,-0.00163 c 0.114227,-0.072378 0.12053,-0.1214411 0.02332,-0.1815209 -0.165291,-0.1021556 -0.468297,0.00476 -0.468297,0.1652438 0,0.1439063 0.23026,0.1523288 0.444978,0.016276 z M 7.9630212,1.8462809 C 8.1299884,1.6939845 7.0630071,1.6020694 5.3635409,1.6223487 4.4564491,1.6331728 2.7373764,1.5798459 1.5433792,1.5038444 0.34938216,1.427843 -0.70198069,1.3942316 -0.79298254,1.4291522 -0.9965172,1.5072558 -1.0117522,1.9194098 -0.8142206,2.0037068 c 0.21929228,0.093583 8.668187,-0.057953 8.7772418,-0.1574259 z m 16.8650498,0.026503 c 0.401744,-0.1234985 -0.579234,-0.2436694 -2.047922,-0.2508727 -1.339326,-0.00657 -1.673763,0.097464 -1.096071,0.3409552 0.263651,0.1111262 2.718238,0.040797 3.143993,-0.090083 z m 6.73241,-0.013773 C 31.663429,1.7937748 31.498228,1.732899 31.074617,1.6799724 30.325,1.586314 29.277721,1.7068248 29.518005,1.8590922 c 0.202643,0.128415 1.839803,0.1283501 2.042476,-8.09e-5 z"
         id="path4229"
         inkscape:connector-curvature="0" />
      <path
         style="fill:#1700a8"
         d="M -1.6506958,15.69112 -1.6506958,0 19.174652,0 40,0 l 0,15.69112 0,15.69112 -20.825348,0 -20.8253478,0 0,-15.69112 z m 16.1054438,9.173631 c 0.311505,-0.0945 0.69617,-0.173738 0.854812,-0.176089 0.158642,-0.0024 0.496116,-0.09885 0.749943,-0.21445 l 0.461504,-0.210175 -0.506184,-0.08806 c -0.833816,-0.14505 -3.332741,-0.242203 -3.710325,-0.144248 -0.60051,0.155786 -0.590135,0.734511 0.01621,0.904177 0.498595,0.139516 1.555776,0.104264 2.134042,-0.07116 z M 1.9836447,22.037953 c 1.4593463,-0.104581 2.4271108,-0.235422 3.5464812,-0.479482 0.393876,-0.08588 0.8393025,-0.07922 1.5933721,0.02383 0.9898809,0.135273 1.0634998,0.130463 1.3569941,-0.08866 0.1706815,-0.127432 0.3103301,-0.32993 0.3103301,-0.449995 0,-0.183092 -0.119958,-0.231529 -0.743763,-0.300321 -0.4090697,-0.04511 -0.9282612,-0.04121 -1.1537589,0.0087 C 6.4363759,20.853054 4.4819302,20.71088 3.9450348,20.537522 3.7546646,20.476054 3.0009042,20.402146 2.2700117,20.373282 1.5391192,20.344419 0.78832961,20.262714 0.60159051,20.191715 c -0.53919134,-0.205 -1.27649438,0.124102 -1.44899036,0.64677 -0.13521152,0.409695 -0.0743445,0.9068 0.14311385,1.168822 0.14140791,0.170386 0.65610396,0.176254 2.6879307,0.03065 z M 14.449218,21.761508 c 1.494268,-0.151479 1.844539,-0.246705 2.117571,-0.575688 0.270201,-0.325572 -0.305707,-0.477117 -2.526364,-0.664788 -1.464465,-0.123764 -3.12162,-0.136815 -3.492055,-0.0275 -0.244102,0.07203 -0.70269,0.923319 -0.6172856,1.145879 0.058019,0.151196 0.2254296,0.168302 2.4940786,0.254845 0.285555,0.01089 1.19638,-0.04884 2.024055,-0.132747 z M 9.6193497,17.074501 c 1.1971663,-0.07347 1.9714823,-0.07482 2.1584053,-0.0038 0.419716,0.159576 1.055663,0.167353 6.704642,0.08199 6.208883,-0.09382 8.295472,-0.166437 9.345447,-0.32523 0.756006,-0.114335 1.377052,-0.316708 0.998132,-0.32525 -0.0856,-0.0019 -0.319232,-0.07761 -0.519192,-0.168174 -0.375859,-0.170234 -1.144327,-0.303548 -1.748075,-0.303256 -0.19037,9.2e-5 -0.417678,-0.04454 -0.505129,-0.09918 -0.240225,-0.150103 -0.04427,-0.355902 0.338875,-0.355902 0.401281,0 0.448438,-0.169249 0.07972,-0.286126 -0.142777,-0.04526 -1.505655,-0.0999 -3.028617,-0.121437 -1.522962,-0.02153 -3.040127,-0.07199 -3.37148,-0.112126 -0.331351,-0.04014 -1.633062,-0.09053 -2.892692,-0.111984 -1.322976,-0.02253 -2.484708,-0.09727 -2.750699,-0.176965 -0.404599,-0.121221 -0.513461,-0.109553 -0.897292,0.09617 -0.384902,0.206296 -0.582905,0.227186 -1.665694,0.175736 -0.675877,-0.03211 -1.887191,-0.05567 -2.6918089,-0.05235 -0.969389,0.004 -1.6505659,-0.05088 -2.019078,-0.162693 -1.1234084,-0.340849 -1.5368309,-0.216207 -1.5368309,0.463333 0,0.565585 -0.094969,0.634568 -0.8736037,0.634568 -0.6071474,0 -0.7541193,0.03845 -0.8529752,0.223167 -0.148263,0.277031 -0.1506239,0.48741 -0.00963,0.858246 l 0.1098033,0.288805 1.8804308,-0.05151 c 1.0342369,-0.02833 2.7205406,-0.103066 3.7473414,-0.166084 z m 1.8443473,-0.768043 c -0.1654,-0.1654 -0.06159,-0.26921 0.26921,-0.26921 0.230752,0 0.346128,0.05769 0.346128,0.173063 0,0.174629 -0.464308,0.247177 -0.615338,0.09615 z m 18.787041,0.307669 c 0.04044,-0.06544 -0.05649,-0.115376 -0.223943,-0.115376 -0.162387,0 -0.295249,0.05192 -0.295249,0.115376 0,0.06346 0.100774,0.115376 0.223942,0.115376 0.123169,0 0.256031,-0.05192 0.29525,-0.115376 z M 2.0083527,13.508437 c 0.222545,-0.06383 1.2679089,-0.06527 2.6304628,-0.0036 1.4754441,0.06673 3.0106236,0.05908 4.4180256,-0.02202 2.4448509,-0.140889 4.1604269,-0.15682 4.7528319,-0.04414 0.395113,0.07516 0.963874,-0.167996 0.792898,-0.338973 -0.10091,-0.100909 -3.971266,-0.204541 -9.2730255,-0.248293 -2.4748128,-0.02042 -4.6477564,-0.04049 -4.82876341,-0.0446 -0.35565529,-0.0081 -1.00820541,0.319861 -1.08300489,0.544259 -0.032741,0.09822 0.23235935,0.149682 0.913745,0.177367 0.52792696,0.02145 1.0380887,0.04957 1.1336927,0.06248 0.095604,0.01292 0.340016,-0.02418 0.5431378,-0.08243 z M 16.578695,13.268226 c 0,-0.06346 -0.132863,-0.115375 -0.29525,-0.115375 -0.167451,0 -0.264383,0.04994 -0.223942,0.115375 0.03922,0.06346 0.172081,0.115376 0.295249,0.115376 0.123169,0 0.223943,-0.05192 0.223943,-0.115376 z m 3.595592,-1.844328 c 3.301799,-0.09877 5.26048,-0.255698 5.807543,-0.465298 0.215595,-0.0826 0.211806,-0.09301 -0.05769,-0.158491 -0.649013,-0.157689 -2.945786,-0.339873 -4.7881,-0.3798 -5.170651,-0.112062 -5.412488,-0.107414 -5.744971,0.1104 -0.360804,0.236367 -0.404082,0.598642 -0.110355,0.923747 0.169027,0.187085 0.295854,0.211411 0.778787,0.149376 0.317284,-0.04076 2.168937,-0.121726 4.114784,-0.179934 z M 7.925503,8.6531912 C 8.0505086,8.5724064 7.9444916,8.5408581 7.5437222,8.539582 7.2028128,8.538492 7.0163717,8.582302 7.0601838,8.6531912 c 0.090676,0.1467161 0.6382922,0.1467161 0.8653192,0 z M 26.154893,7.8406413 C 29.962067,7.7308743 31.084025,7.6397465 30.802481,7.4631546 30.602821,7.3379222 27.840678,7.1775343 24.539631,7.0994929 22.984941,7.0627379 20.804337,6.9877024 19.693844,6.9327472 17.4589,6.8221464 17.18192,6.8724693 16.98782,7.4243891 c -0.09178,0.260976 -0.07772,0.35581 0.06859,0.4628005 0.206709,0.1511488 2.680484,0.1384929 9.09848,-0.046548 z M 11.559275,7.7304002 c 0.491178,-0.1867454 0.21596,-0.3463437 -0.597247,-0.3463437 -0.646008,0 -0.737005,0.024408 -0.619379,0.1661373 0.122817,0.1479874 0.353366,0.2309626 0.777024,0.2796541 0.07519,0.00864 0.27301,-0.03611 0.439602,-0.099448 z m 9.823622,-2.4231096 c 0.213242,0 0.387713,-0.051919 0.387713,-0.1153759 0,-0.124632 -1.360269,-0.1617101 -1.663514,-0.045344 -0.400789,0.153797 -0.171481,0.3059501 0.352794,0.2340902 0.294413,-0.040354 0.709766,-0.07337 0.923007,-0.07337 z M 20.039971,3.3421467 c 0.285556,-0.062419 0.63601,-0.1400175 0.778788,-0.1724415 0.374856,-0.085128 0.318886,-0.357442 -0.103749,-0.5047733 -0.533636,-0.1860264 -0.83716,-0.1561692 -1.183729,0.116442 -0.234073,0.1841223 -0.398806,0.2248982 -0.678971,0.1680642 -0.817345,-0.165806 -3.680962,-0.2808687 -7.234779,-0.2907 -3.3422083,-0.00925 -3.8374869,0.013421 -4.5573472,0.2085693 -1.0491533,0.2844172 -0.7990398,0.3970142 0.8426265,0.379337 0.6787768,-0.00731 1.4677757,-0.0069 1.753331,9e-4 0.8451757,0.023104 1.9570517,0.0247 2.9420857,0.00422 0.507653,-0.010553 1.286441,-0.017201 1.730638,-0.014773 0.444197,0.00243 1.560459,-0.012458 2.480581,-0.03308 1.101021,-0.024676 1.811003,0.010128 2.076766,0.1018029 0.504011,0.1738587 0.522375,0.1744385 1.153759,0.036426 z M 4.6532732,3.1954074 C 4.9004397,2.9479876 4.2686279,2.878861 2.0990206,2.9159462 c -2.25558571,0.038555 -2.78255749,0.1059945 -2.639314,0.3377673 0.0849196,0.1374027 5.0537844,0.081619 5.1935666,-0.058306 z M 6.5986803,2.1192691 C 10.215714,2.0804771 13.265964,2.0012985 13.377014,1.9433167 13.711102,1.7688804 13.607081,1.6330098 13.088574,1.5665625 12.818883,1.5320013 10.132067,1.479839 7.1178718,1.4506464 4.1036767,1.4214537 1.1321756,1.3409282 0.51453617,1.2717008 -0.44710733,1.1639161 -0.65845025,1.1716917 -0.95650638,1.3258225 -1.3515248,1.5300944 -1.3959199,1.7306701 -1.1026603,1.986141 -0.81403962,2.2375708 -0.5955595,2.3047866 -0.26618513,2.2434839 -0.10754328,2.2139578 2.9816462,2.1580611 6.5986803,2.1192691 Z M 28.02693,1.9411186 c 0.523917,-0.099485 0.738751,-0.092461 1.038383,0.033949 0.268201,0.1131507 0.794965,0.1509956 1.8159,0.1304614 1.490746,-0.029984 1.850106,-0.082456 1.850106,-0.2701455 0,-0.3146248 -0.798055,-0.3550333 -7.268681,-0.368039 -1.681603,-0.00338 -3.343016,-0.010421 -3.692028,-0.015646 -0.574133,-0.0086 -0.638088,0.015291 -0.67153,0.2508102 -0.02619,0.1844655 0.04104,0.2915065 0.230752,0.3673793 0.350975,0.1403681 5.835049,0.034922 6.697098,-0.1287697 z"
         id="path4227"
         inkscape:connector-curvature="0" />
      <path
         style="fill:#02005b"
         d="m -1.6506958,25.473346 c 0,-5.351317 0.01697,-5.891923 0.1798412,-5.729052 0.1371774,0.137178 0.1890185,0.499405 0.2185263,1.526902 0.050861,1.771041 0.2499882,1.995619 1.27629149,1.439423 0.36244967,-0.196427 0.67991693,-0.253517 1.49950641,-0.269655 0.5718413,-0.01126 1.1504748,-0.07975 1.2858523,-0.152203 0.1353774,-0.07245 0.5241732,-0.129488 0.8639907,-0.126748 0.3398174,0.0027 1.3187584,-0.02076 2.1754244,-0.05223 0.9176449,-0.03371 1.6827945,-0.0094 1.8623572,0.05909 0.2266547,0.08649 0.4446451,0.06882 0.850395,-0.06893 0.6842973,-0.232324 0.9384531,-0.153441 1.1519518,0.357533 0.1572108,0.376258 0.1503129,0.4408 -0.1008305,0.943454 C 9.4643382,23.697691 9.3086483,24.083273 9.2666329,24.257779 9.1538153,24.726355 9.0060237,24.646094 8.7913079,23.999646 8.685286,23.680444 8.4645434,23.317533 8.2955562,23.184608 7.8429889,22.828618 7.7159584,23.079615 7.7823809,24.198579 c 0.070195,1.182503 0.1764035,1.288068 0.9178949,0.912326 l 0.5742582,-0.290998 0.4275273,0.352404 c 0.4099017,0.337875 0.4478907,0.346702 0.9214777,0.214106 0.404763,-0.113327 0.566509,-0.107981 0.895798,0.02961 0.417059,0.174259 0.402611,0.174213 5.059358,0.01589 1.110493,-0.03776 2.174632,-0.06536 2.364755,-0.06135 0.190123,0.004 0.527597,-0.04495 0.749944,-0.108803 0.776429,-0.222989 2.139098,-0.455903 2.66738,-0.455923 0.612556,-2.3e-5 1.258176,-0.389916 1.02763,-0.620589 -0.131417,-0.131488 -1.297736,-0.287752 -2.656177,-0.355875 -0.412469,-0.02068 -1.139337,-0.09179 -1.615263,-0.158003 -0.475925,-0.06622 -1.254713,-0.125151 -1.730638,-0.130964 -2.842737,-0.03472 -4.248726,-0.08679 -4.528534,-0.167725 -0.212607,-0.06149 -0.470362,-0.03054 -0.781122,0.0938 -0.255095,0.102069 -0.643141,0.185579 -0.862327,0.185579 -0.324613,0 -0.43116,-0.06313 -0.574544,-0.340398 -0.217363,-0.420334 -0.226388,-0.858685 -0.02119,-1.028989 0.10024,-0.08319 1.147885,-0.147455 2.970929,-0.182241 2.901766,-0.05537 3.475332,-0.117913 4.108338,-0.44798 0.460305,-0.240017 1.20374,-0.244069 1.875357,-0.01022 0.401178,0.139684 0.932848,0.172086 2.422893,0.147662 1.049914,-0.01721 2.3465,-0.01964 2.881303,-0.0054 1.357549,0.03616 1.980131,-0.208654 1.790086,-0.703903 -0.07478,-0.194865 -1.538317,-0.462471 -2.031356,-0.371432 -0.212654,0.03927 -0.591546,0.003 -0.846475,-0.08098 -0.49514,-0.163151 -2.804115,-0.180573 -4.7881,-0.03613 -0.872624,0.06353 -1.201913,0.04163 -1.615262,-0.107441 -0.619587,-0.223449 -3.736604,-0.522179 -5.813917,-0.557196 -1.444809,-0.02436 -1.492372,-0.01736 -1.6640398,0.244692 -0.1446266,0.220778 -0.2411904,0.256429 -0.5317563,0.19632 -0.1952715,-0.0404 -0.7895075,-0.12101 -1.3205246,-0.179145 -0.7611418,-0.08333 -1.0311966,-0.07172 -1.2759573,0.05485 -0.1933649,0.09999 -0.3722976,0.122341 -0.4743834,0.05925 -0.090152,-0.05572 -0.5617118,-0.09282 -1.0479118,-0.08246 C 4.6976315,20.232871 4.3106421,20.187329 4.2013097,20.09659 4.0878762,20.002449 3.5204694,19.944238 2.5447106,19.92664 1.2120448,19.902604 1.0103941,19.871225 0.56815688,19.619069 0.29729248,19.464627 0.09253812,19.287678 0.11314726,19.225851 0.18230414,19.01838 1.0195408,18.8062 1.4790806,18.879682 c 0.3961667,0.06335 0.4468762,0.04476 0.4468762,-0.163787 0,-0.129383 -0.159759,-0.36967 -0.35502,-0.533971 C 1.2237942,17.889823 1.0104557,17.807939 0.42607021,17.742497 0.16990989,17.713813 0.1412609,17.663032 0.17007049,17.288741 c 0.0263664,-0.342548 -0.0263719,-0.467718 -0.28167789,-0.668542 -0.17276489,-0.135896 -0.41579021,-0.231797 -0.54005632,-0.213111 -0.37825488,0.05688 -0.70160898,0.607685 -0.67011278,1.14148 0.020341,0.344737 -0.012625,0.459367 -0.1216652,0.423052 -0.1170047,-0.03897 -0.1562264,-0.783271 -0.180159,-3.418853 l -0.030593,-3.369041 0.342147,0.176931 c 0.42561573,0.220095 0.8007254,0.223871 1.36081032,0.0137 0.2392469,-0.08978 0.58146033,-0.19553 0.76047421,-0.235008 0.18215142,-0.04017 0.30528087,-0.133411 0.27961057,-0.21174 -0.081381,-0.248326 -0.92781769,-0.453254 -1.84538126,-0.446781 l -0.89416314,0.0063 0,-2.4745472 c 0,-1.5148462 0.043228,-2.4745474 0.1114615,-2.4745474 0.061304,0 0.293565,0.086839 0.5161358,0.1929756 0.33639825,0.1604172 0.45722761,0.1690307 0.71616018,0.051053 L 0.00454762,5.6401487 -0.34350036,5.2921008 C -0.57876766,5.0568335 -0.84802756,4.9230646 -1.1744524,4.8792818 l -0.482904,-0.064771 0.032174,-1.4445688 c 0.027422,-1.2311829 0.05993,-1.4486184 0.2200732,-1.4719834 0.1290145,-0.018823 0.1710608,0.036975 0.1341686,0.178051 -0.067729,0.2589965 0.1575162,0.4080097 0.36120788,0.2389608 0.10669618,-0.08855 0.24685315,-0.092477 0.45644948,-0.012788 0.44094219,0.1676459 0.36983707,0.3514633 -0.13595468,0.3514633 -0.54650258,0 -0.71533048,0.1627691 -0.71533048,0.6896586 0,0.6291474 0.276937,0.945822 0.78974998,0.903071 0.3508618,-0.02925 0.42818303,-0.083606 0.46031037,-0.3235949 C -0.03327028,3.7641382 0.03173999,3.5849058 0.08995947,3.5244858 0.15299844,3.4590644 2.1906971,3.4047235 5.1278851,3.3901356 7.8405246,3.3766629 10.345512,3.3641198 10.694524,3.362262 c 0.363652,-0.00194 0.743664,0.067737 0.890105,0.1631943 0.308511,0.2011042 0.654074,0.2127336 0.989357,0.033295 0.136966,-0.073302 0.446679,-0.1255319 0.68825,-0.1160662 0.241571,0.00947 0.991798,-0.060358 1.667171,-0.1551631 1.421246,-0.1995074 2.412642,-0.2219791 2.514607,-0.056998 0.03922,0.063457 0.273501,0.1153759 0.520629,0.1153759 0.381095,0 0.528605,0.080421 0.971449,0.5296184 0.556001,0.5639803 0.768783,0.6061286 0.836012,0.1655999 0.07302,-0.4784501 0.251144,-0.5798424 1.018668,-0.5798424 0.642791,0 0.743343,-0.031738 0.910943,-0.2875285 0.153118,-0.2336866 0.274486,-0.284155 0.648141,-0.2695138 0.456623,0.017892 0.76414,-0.1196831 0.487981,-0.2183111 -0.178,-0.063571 -0.188901,-0.3371733 -0.01765,-0.4430123 0.06961,-0.043024 1.198855,-0.1035318 2.509425,-0.1344625 1.31057,-0.030931 2.402015,-0.0742 2.425434,-0.096154 0.02342,-0.021954 0.117986,0.03549 0.21015,0.1276534 0.195356,0.1953577 0.477438,0.2063927 1.17347,0.045906 0.306175,-0.070596 0.55463,-0.074637 0.634568,-0.010321 0.07849,0.063152 0.423988,0.064875 0.858286,0.00428 0.437137,-0.06099 0.920064,-0.058146 1.211447,0.00713 0.453254,0.1015469 1.730687,0.00895 1.875594,-0.1359598 0.03543,-0.035434 -0.08366,-0.1698757 -0.264666,-0.2987592 -0.291792,-0.2077747 -0.515987,-0.2355626 -1.978112,-0.2451771 -1.293267,-0.0085 -1.685962,-0.047783 -1.820246,-0.1820685 -0.245013,-0.2450119 -1.28333,-0.1797664 -1.128405,0.070906 0.03417,0.055287 -0.09621,0.068854 -0.289738,0.030149 -0.193525,-0.038705 -0.351814,-0.024943 -0.351752,0.030581 6.1e-5,0.055825 -1.218347,0.085367 -2.7256,0.066085 -2.28946,-0.029288 -2.754663,-0.063822 -2.906609,-0.2157681 -0.219871,-0.2198709 -1.265553,-0.1491425 -1.636517,0.1106919 -0.193187,0.1353131 -0.677795,0.1567545 -2.636403,0.1166475 -2.101949,-0.043042 -2.418792,-0.026144 -2.553516,0.1361887 -0.09193,0.1107736 -0.111683,0.2270228 -0.04909,0.2889726 0.0576,0.057004 1.229776,0.1184506 2.604845,0.1365474 2.458026,0.032349 3.043953,0.1232013 1.738118,0.2695077 C 19.356994,2.4062551 18.829372,2.513727 18.548377,2.6043127 18.032929,2.77048 15.743775,2.8315342 16.15985,2.6680177 16.312525,2.608023 16.152338,2.542114 15.611773,2.4425102 14.488311,2.2355042 14.29345,2.1388874 14.250574,1.7675942 14.201709,1.3444371 13.736659,1.1657406 13.194489,1.3617919 12.657615,1.5559282 6.6946373,1.5570056 6.6299613,1.362978 6.5949266,1.2578738 6.3179694,1.2607102 5.4377439,1.3751878 3.9395173,1.5700394 0.92986549,1.3989811 0.46193284,1.09238 0.08886882,0.84793913 -1.0503173,0.92311942 -1.2570351,1.2058228 -1.5201521,1.5656567 -1.6506958,1.3961927 -1.6506958,0.69479624 l 0,-0.68971434 L 19.174652,0.00221191 40,-6.5808096e-4 40,15.690791 l 0,15.691449 -20.825348,0 -20.8253478,0 0,-5.908894 z m 14.1822198,5.030547 c 0.173266,-0.102351 0.414913,-0.400887 0.536993,-0.663412 0.12208,-0.262525 0.296362,-0.477319 0.38729,-0.477319 0.09093,0 0.272773,0.207677 0.404096,0.461504 0.171595,0.331668 0.322616,0.471259 0.536805,0.49618 0.354818,0.04128 0.457539,-0.07133 0.801901,-0.879145 0.2611,-0.612497 0.261165,-0.614171 0.03223,-0.843101 -0.181267,-0.181269 -0.445144,-0.243687 -1.257936,-0.297557 -1.352149,-0.08962 -2.268665,-0.06121 -2.64534,0.082 -0.224357,0.0853 -0.516386,0.06536 -1.097659,-0.07493 -0.7392258,-0.178422 -0.8116241,-0.178281 -1.0869456,0.0021 -0.2669915,0.174939 -0.3270792,0.176665 -0.6335213,0.0182 C 8.323236,28.232135 8.1385712,28.101063 8.0990739,28.037155 7.9782735,27.8417 7.687393,27.906643 7.3275826,28.209403 c -0.1945629,0.163714 -0.4886345,0.28844 -0.6800666,0.28844 -0.2828432,0 -0.3372754,0.04655 -0.3372754,0.28844 0,0.219105 0.060217,0.288439 0.2505109,0.288439 0.287169,0 0.6724962,0.307733 0.6724962,0.537074 0,0.08535 0.1018356,0.257017 0.2263014,0.381483 0.3133133,0.313313 0.824631,0.127914 1.1103289,-0.402595 0.3631085,-0.67425 0.6009223,-0.608889 0.8954285,0.246106 0.1854881,0.538499 0.6574495,0.863774 0.9686265,0.667575 0.111597,-0.07036 0.234099,-0.319618 0.272227,-0.553902 0.122453,-0.752441 0.586106,-0.876455 0.735406,-0.196699 0.08438,0.384167 0.471718,0.936221 0.656886,0.936221 0.06492,0 0.259807,-0.08374 0.433072,-0.186092 z m 6.445613,-0.650383 c 0.06555,-0.07932 0.154202,-0.331667 0.197009,-0.560769 0.06146,-0.328965 0.03762,-0.431977 -0.11341,-0.489933 -0.334016,-0.128175 -0.636027,0.128875 -0.636027,0.541338 0,0.53597 0.301054,0.813556 0.552428,0.509364 z m 2.334822,-0.09186 c 0.06949,-0.129845 0.110257,-0.402421 0.09059,-0.605723 -0.0337,-0.348371 -0.06231,-0.36964 -0.497259,-0.36964 -0.437012,0 -0.459686,0.0172 -0.427233,0.324047 0.08794,0.831495 0.546,1.189263 0.833901,0.651316 z m -4.387881,-0.396228 c 0.157202,-0.476329 0.0847,-0.636823 -0.287695,-0.636823 -0.151152,0 -0.307537,0.05293 -0.347522,0.117631 -0.110003,0.177988 0.17034,0.920752 0.347522,0.920752 0.08534,0 0.214805,-0.180702 0.287695,-0.40156 z m 6.346418,-0.17532 c 0,-0.266779 -0.209776,-0.413253 -0.366869,-0.256161 -0.07776,0.07776 -0.07254,0.197235 0.01584,0.362382 0.149756,0.279823 0.351027,0.218919 0.351027,-0.106221 z m 6.225491,-4.408044 c 0.321935,-0.183615 0.517214,-0.212804 1.010958,-0.151115 0.857756,0.10717 1.83302,-0.249506 1.271455,-0.464998 -0.182577,-0.07006 -1.591964,-0.14044 -3.870203,-0.193262 -2.223895,-0.05156 -2.393574,0.05756 -1.250122,0.803951 0.544136,0.355187 0.588885,0.364124 1.499887,0.299554 0.622088,-0.04409 1.073686,-0.143365 1.338025,-0.29413 z M 4.7721504,18.400382 c 0.010716,-0.252688 0.023696,-0.524331 0.028844,-0.603652 0.018537,-0.285629 0.6033632,-0.150292 0.9488787,0.219584 l 0.3398437,0.363804 0.4051045,-0.392648 0.4051045,-0.392648 1.762605,-0.0068 c 1.1865167,-0.0046 1.8832552,-0.05682 2.1317512,-0.15975 0.203029,-0.0841 0.385026,-0.132936 0.404436,-0.108531 0.01941,0.02441 0.201958,0.29099 0.405659,0.592409 0.203702,0.30142 0.442217,0.548035 0.530033,0.548035 0.08781,0 0.267747,-0.151787 0.399848,-0.337306 0.293635,-0.412373 0.655498,-0.504084 2.083047,-0.527928 0.602839,-0.01007 3.328594,-0.05438 6.057234,-0.09846 2.72864,-0.04408 5.662072,-0.132373 6.518737,-0.196198 0.856666,-0.06382 2.403557,-0.0983 3.437535,-0.07662 1.666021,0.03494 1.919727,0.01524 2.229402,-0.173083 0.302315,-0.183851 0.339235,-0.25898 0.273756,-0.557099 -0.06882,-0.313322 -0.03851,-0.360121 0.334007,-0.515769 0.22533,-0.09415 0.672584,-0.17118 0.993897,-0.17118 0.70798,0 0.893259,-0.249736 0.451984,-0.609227 -0.246578,-0.20088 -0.397285,-0.219581 -1.302695,-0.161658 -0.563122,0.03603 -1.28999,0.02013 -1.615263,-0.03533 -0.518626,-0.08843 -6.18465,-0.255056 -9.994538,-0.293922 -4.718482,-0.04814 -5.598995,-0.08494 -5.778586,-0.24156 -0.142134,-0.123952 -0.262088,-0.131844 -0.538638,-0.03544 -0.542275,0.189038 -1.117547,0.09896 -1.157719,-0.181273 -0.0416,-0.290208 0.184518,-0.586829 0.524311,-0.687785 0.209842,-0.06235 0.299389,-0.0088 0.461504,0.276061 0.239273,0.420412 0.297634,0.426806 1.011855,0.110872 0.393816,-0.174203 0.686795,-0.226149 1.024206,-0.181593 0.259929,0.03432 1.147548,0.0092 1.972486,-0.05585 0.824937,-0.06504 1.795755,-0.11131 2.157374,-0.102823 0.690334,0.0162 1.543672,-0.252845 1.422711,-0.448565 -0.279924,-0.452925 -2.912824,-0.569025 -14.6561705,-0.646276 -4.2516015,-0.02797 -7.9119016,-0.0568 -8.13400018,-0.06408 -0.22209859,-0.0073 -0.61149222,0.0055 -0.86531917,0.0285 -0.44723175,0.04044 -0.46771935,0.06114 -0.66250075,0.66925 -0.191079,0.596553 -0.191079,0.647792 0,1.038383 0.26592626,0.543587 0.48880974,0.56148 0.9722414,0.07805 l 0.40096502,-0.400965 2.51933498,0.04567 c 1.4730254,0.0267 2.5675888,0.09392 2.6355219,0.161853 0.077998,0.078 0.070729,0.215955 -0.022116,0.419729 -0.078513,0.172317 -0.1066229,0.472414 -0.065022,0.694166 0.057134,0.304551 0.030397,0.407081 -0.1213405,0.465307 -0.1123696,0.04312 -0.2729921,-0.0037 -0.3800578,-0.110751 -0.1594193,-0.15942 -0.1638177,-0.22583 -0.03135,-0.473348 0.1987516,-0.371371 -0.014253,-0.669583 -0.4420589,-0.618895 -0.5309559,0.06291 -0.7593795,0.662857 -0.7818014,2.053375 -0.01818,1.127438 0.00138,1.243965 0.2808157,1.673331 0.5863818,0.900987 0.9917927,0.991511 1.0241441,0.228681 z M 7.3486236,14.538211 C 7.1899817,14.485389 6.9174062,14.41068 6.7429001,14.372191 6.5683941,14.333703 6.4256164,14.225324 6.4256164,14.131348 c 0,-0.18595 -0.035639,-0.183528 3.4294452,-0.233118 1.8025194,-0.0258 1.8675564,-0.01873 1.7554224,0.190794 -0.06405,0.119673 -0.182115,0.217585 -0.262376,0.217585 -0.08026,0 -0.20716,0.06123 -0.281997,0.136068 -0.162556,0.162555 -3.2759199,0.242565 -3.7174874,0.09553 z m 5.2688324,0.03761 c -0.143357,-0.143355 -0.07787,-0.463333 0.134075,-0.655143 0.467945,-0.423485 0.796038,-0.01425 0.360372,0.449492 -0.277983,0.2959 -0.367124,0.332974 -0.494447,0.205651 z M 30.958131,13.23386 c 0.0398,-0.0398 -0.0667,-0.135734 -0.236681,-0.21318 -0.244061,-0.111202 -0.392601,-0.110599 -0.706385,0.0029 -0.245084,0.08862 -0.596013,0.113885 -0.91583,0.06593 -0.598942,-0.08982 -1.235482,0.02268 -0.989281,0.174844 0.175216,0.10829 2.736823,0.0809 2.848177,-0.03046 z M 16.590948,11.958501 c 0.442911,-0.337876 1.337331,-0.644424 1.191425,-0.408343 -0.0985,0.159373 0.411755,0.23596 0.788367,0.118331 0.205238,-0.0641 1.229826,-0.115386 2.276863,-0.113962 4.50492,0.0061 8.19738,-0.248345 8.572807,-0.590798 0.05097,-0.0465 -0.234583,-0.179882 -0.634568,-0.296411 -0.646074,-0.188224 -1.280115,-0.215699 -5.680559,-0.246156 -4.276527,-0.0296 -5.021686,-0.0604 -5.45373,-0.225394 -0.46938,-0.179258 -0.528169,-0.178596 -0.947882,0.01067 -0.438034,0.197526 -0.45471,0.196422 -0.791207,-0.05236 -0.415394,-0.3071141 -0.721637,-0.2693672 -0.911973,0.112408 -0.140519,0.281851 -0.154921,0.2842 -1.591768,0.259626 -1.107891,-0.01895 -1.516974,-0.0687 -1.733988,-0.210894 -0.240987,-0.157901 -0.36857,-0.165814 -0.842062,-0.05222 -0.489452,0.117418 -0.632032,0.104709 -1.1599985,-0.103396 -1.2051892,-0.4750407 -2.2086751,-0.2275669 -2.2086751,0.544691 0,0.682905 0.6406582,1.054278 1.2532081,0.726451 0.2329581,-0.124675 1.6773715,-0.156888 3.6874885,-0.08224 0.781952,0.02904 1.576694,0.0084 1.766094,-0.04596 0.468506,-0.134366 0.643512,-0.04376 0.79355,0.410865 0.122607,0.371501 0.464913,0.599635 0.934352,0.622707 0.101924,0.005 0.413439,-0.164914 0.692256,-0.377609 z m 18.476733,-0.996789 c 0.731342,-0.0017 0.478818,-0.196457 -0.339936,-0.262179 -0.800166,-0.06423 -1.30417,0.04181 -1.30417,0.274391 0,0.09434 0.180249,0.112652 0.605723,0.06155 0.333148,-0.04002 0.80042,-0.07321 1.038383,-0.07376 z M 9.7638631,8.9897609 c 0.3448019,-0.0582 0.9484949,-0.105818 1.3415389,-0.105818 0.467656,0 0.7604,-0.055153 0.847075,-0.1595898 0.102135,-0.1230657 0.09217,-0.1750475 -0.04356,-0.2271307 -0.265612,-0.1019248 -0.211129,-0.4132691 0.09252,-0.5287166 0.209789,-0.079762 3.873214,-0.188009 4.548414,-0.1343971 0.08078,0.00641 0.14422,0.1637014 0.14422,0.3575789 0,0.3362866 0.01567,0.3461277 0.551207,0.3461277 0.303165,0 0.65628,-0.073595 0.7847,-0.1635445 0.158276,-0.1108609 0.714757,-0.1841373 1.727467,-0.2274697 0.821685,-0.035159 2.480437,-0.12045 3.686115,-0.1895358 1.205678,-0.069086 2.985416,-0.099042 3.954973,-0.06657 1.101408,0.036889 1.737375,0.017853 1.694984,-0.050735 -0.07559,-0.1223014 0.440434,-0.1535368 0.56007,-0.033902 0.134366,0.1343674 2.658628,0.1769115 2.991335,0.050416 0.231487,-0.088011 0.317149,-0.2000301 0.317149,-0.4147306 0,-0.3927364 -0.419921,-0.5541731 -1.072762,-0.4124175 -0.266646,0.057899 -1.107842,0.091024 -1.869323,0.073611 -0.802585,-0.018353 -1.190535,0.00294 -0.923007,0.050669 l 0.461503,0.082328 -0.598212,0.016373 c -0.329018,0.00901 -0.720654,-0.03018 -0.870305,-0.087077 -0.149649,-0.056897 -1.230352,-0.1363744 -2.40156,-0.1766167 -1.171208,-0.040242 -2.66164,-0.099544 -3.312072,-0.1317827 -0.650431,-0.032238 -1.182603,-0.013988 -1.182603,0.040556 0,0.055255 -0.268233,0.05545 -0.605723,4.385e-4 -0.333148,-0.054302 -0.709562,-0.091436 -0.836475,-0.082519 -0.999751,0.07024 -1.914894,0.026826 -2.038421,-0.0967 C 17.448224,6.4537192 16.951443,6.547365 16.784225,6.8937062 16.646961,7.1780081 16.577345,7.2079176 16.114519,7.181434 15.830434,7.16518 14.481738,7.130999 13.117418,7.105479 11.753098,7.079958 10.377241,7.051541 10.059957,7.04233 8.5488246,6.998458 7.8101271,7.091286 7.8101271,7.325054 c 0,0.296441 0.4895367,0.5205057 1.137201,0.5205057 0.6152124,0 1.4757009,0.1842662 1.6773519,0.3591909 0.239972,0.2081643 -0.580407,0.2348763 -1.3861257,0.045133 C 8.76574,8.1385377 8.2119805,8.0709791 8.0079776,8.0997535 7.3210817,8.1966392 6.9872696,8.0579157 6.8443049,7.6161617 6.6455521,7.0020253 6.2520588,6.8630556 5.1948054,7.0336088 4.1052254,7.2093769 2.6967222,7.209915 1.8536082,7.0348853 1.1710122,6.8931789 0.76996558,6.9544803 -0.12587963,7.3374573 c -0.20838731,0.089086 -0.50385828,0.1619751 -0.65660221,0.1619751 -0.38058016,0 -0.44832976,0.1617279 -0.23807436,0.5683169 0.30605285,0.591841 1.36589097,0.5905816 1.68303103,-0.002 C 0.79517337,7.8178002 0.82702888,7.8148241 2.4853271,7.895445 3.4136136,7.940575 4.1940988,7.9984778 4.2197387,8.0241178 4.2453787,8.0497578 4.2012307,8.1492081 4.121632,8.2451186 3.9241,8.4831301 4.0480278,8.7456802 4.4324257,8.9035575 5.1094576,9.1816236 8.319671,9.2335293 9.7638631,8.9897613 Z M 5.2141696,8.0763118 c -0.040602,-0.065695 0.05876,-0.1153759 0.2307518,-0.1153759 0.1719922,0 0.2713536,0.049681 0.2307518,0.1153759 -0.039219,0.063457 -0.1430568,0.1153758 -0.2307518,0.1153758 -0.087695,0 -0.1915333,-0.051919 -0.2307518,-0.1153758 z M 22.578241,5.5206261 c 0.475925,-0.067302 1.091314,-0.1636391 1.367531,-0.2140827 0.276217,-0.050444 0.66561,-0.044697 0.865319,0.01277 0.433657,0.1247869 6.214915,0.1149379 6.418581,-0.010935 0.353019,-0.2181781 -0.38239,-0.271918 -4.085316,-0.2985334 -2.162352,-0.015542 -4.237288,-0.083224 -4.610972,-0.1504038 -0.373683,-0.06718 -0.975977,-0.091149 -1.338434,-0.053265 -0.400251,0.041835 -0.827788,0.013179 -1.088852,-0.07298 -0.393217,-0.1297732 -0.45367,-0.1194758 -0.709488,0.1208527 -0.329265,0.3093289 -0.359892,0.6231913 -0.07774,0.7966623 0.222956,0.1370751 1.821226,0.073286 3.259369,-0.1300849 z m 6.887181,-2.4336449 c 0.846822,0.027812 1.086607,-0.06791 0.788944,-0.3149487 -0.113617,-0.094294 -0.417068,-0.1162886 -0.950581,-0.068899 -1.156078,0.1026888 -1.515272,0.1037508 -2.308401,0.00682 -0.699998,-0.085545 -1.41737,0.064162 -1.41737,0.2957881 0,0.1714101 0.508334,0.2086412 1.788326,0.1309799 0.698024,-0.042351 1.642611,-0.064736 2.099082,-0.049745 z M 1.2120685,22.073355 c 0.083287,-0.03333 0.1827986,-0.02923 0.2211371,0.0091 0.038338,0.03834 -0.029805,0.06561 -0.1514308,0.0606 -0.1344064,-0.0055 -0.1617455,-0.03288 -0.069706,-0.06971 z M 1.6226345,2.7222324 C 1.2337087,2.6454756 0.82244465,2.4896226 0.70871437,2.3758923 0.50992194,2.1770999 0.552848,2.1699974 1.8196679,2.1920772 2.5444225,2.2047091 3.9940696,2.1857464 5.0411058,2.149938 6.6099527,2.0962837 6.9843057,2.1146397 7.1693586,2.2542949 7.4427938,2.4606501 7.3092086,2.6328927 6.8241538,2.6993964 5.2845477,2.9104854 5.1623736,2.9118094 4.6893264,2.7225336 4.2177899,2.5338621 3.7046578,2.5667651 3.8347927,2.7773278 3.9277321,2.927707 2.481226,2.8916807 1.6226345,2.7222324 Z M 8.9061981,2.4609116 C 7.9943878,2.1332627 8.1861317,2.0767659 10.209946,2.0767659 c 1.511134,0 1.98425,0.034399 1.983565,0.1442198 -0.002,0.3230617 -1.265789,0.6012652 -1.441299,0.3172837 -0.03922,-0.063457 -0.275919,-0.1153759 -0.526001,-0.1153759 -0.2500816,0 -0.4546938,0.051919 -0.4546938,0.1153759 0,0.1526423 -0.2998541,0.1258359 -0.8653191,-0.077358 z M 21.197072,2.542776 c -0.09335,-0.059035 -0.134705,-0.1423537 -0.0919,-0.1851533 0.108423,-0.1084236 0.665443,0.04463 0.665443,0.1828449 0,0.1426866 -0.349345,0.1440927 -0.573538,0.00231 z"
         id="path4225"
         inkscape:connector-curvature="0" />
      <path
         style="fill:#00001d"
         d="m -1.6489291,26.219169 c 0.00116,-3.376048 0.040477,-5.103171 0.1136092,-4.990007 0.061513,0.09519 0.1126375,0.547716 0.1136092,1.005625 0.00116,0.546104 0.070073,0.9758 0.2002924,1.248873 0.1728975,0.36257 0.2361978,0.40594 0.49034754,0.335955 0.16050199,-0.0442 0.49024421,-0.07898 0.73276041,-0.07729 l 0.44093873,0.0031 -0.0735324,-0.435233 c -0.0910038,-0.538648 -0.0774359,-0.544511 1.32408192,-0.572237 0.7668289,-0.01517 1.1491286,-0.07149 1.2782195,-0.188319 0.3285479,-0.297331 0.4540317,-0.193924 0.4627757,0.381359 0.00727,0.478338 0.058556,0.58977 0.4032617,0.876199 0.3452486,0.28688 0.404302,0.303746 0.4694148,0.134065 0.040966,-0.106755 0.017808,-0.378762 -0.05146,-0.604462 -0.2356721,-0.767888 0.287522,-1.310243 0.8968614,-0.929704 0.1793274,0.111992 0.2984938,0.103695 0.6041579,-0.04206 0.2651488,-0.126438 0.4644662,-0.150609 0.6564098,-0.0796 0.1516028,0.05608 0.4580947,0.06774 0.681093,0.02591 0.3882222,-0.07283 0.4014715,-0.06434 0.3117923,0.19969 -0.051513,0.151664 -0.084112,0.509389 -0.072443,0.794945 0.011669,0.285555 0.036482,0.908585 0.05514,1.38451 0.018658,0.475926 0.074775,1.179278 0.1247033,1.563004 0.085152,0.65444 0.071505,0.72059 -0.2201707,1.067227 -0.1710223,0.203245 -0.3662287,0.369539 -0.4337921,0.369539 -0.067563,0 -0.3204415,-0.214039 -0.5619513,-0.475641 -0.7253359,-0.78568 -1.0834243,-0.331013 -0.7576993,0.962056 0.1612899,0.640293 0.1614073,0.751034 0.00119,1.121552 -0.1941638,0.449017 -0.2133616,1.334567 -0.038881,1.793486 l 0.1104761,0.290575 -2.4076941,0 c -2.0337393,0 -2.41800874,-0.02688 -2.47410485,-0.173064 -0.036526,-0.09519 -0.14221059,-0.173064 -0.23485466,-0.173064 -0.0926441,0 -0.24632245,0.07788 -0.34150755,0.173064 -0.12120295,0.121204 -0.41755077,0.173064 -0.98893618,0.173064 l -0.81587236,0 0.00177,-5.163071 z m 8.1380023,5.055773 c 0.1247837,-0.122155 0.9133982,-0.425627 1.6379022,-0.630292 0.5963191,-0.168454 0.6930912,-0.260413 0.7415009,-0.704609 0.020747,-0.19037 0.089641,-0.335203 0.1530977,-0.321853 0.2001379,0.04211 0.1986082,0.496434 -0.00271,0.803679 -0.1841601,0.281064 -0.1816212,0.311577 0.052243,0.627897 l 0.2458101,0.332476 -1.4687279,0 c -0.9070909,0 -1.4268144,-0.04103 -1.3591207,-0.107298 z m 3.2536001,0.03089 c 0.079321,-0.03201 0.2091188,-0.03201 0.2884397,0 0.07932,0.03201 0.01442,0.05819 -0.1442199,0.05819 -0.1586418,0 -0.2235408,-0.02619 -0.1442198,-0.05819 z m 1.5287307,-0.04577 c 0,-0.0672 0.05192,-0.0901 0.115376,-0.05088 0.06346,0.03922 0.115376,0.0942 0.115376,0.122186 0,0.02798 -0.05192,0.05088 -0.115376,0.05088 -0.06346,0 -0.115376,-0.05498 -0.115376,-0.122185 z m 1.337777,0.0074 c 0.184866,-0.184865 1.328645,-0.254037 1.694537,-0.10248 0.286771,0.118785 0.361023,0.105738 0.566252,-0.09949 0.129911,-0.129911 0.330298,-0.514157 0.445307,-0.853883 0.263163,-0.777362 0.484651,-0.79925 0.59063,-0.05837 0.09408,0.657709 0.111122,0.680977 0.49874,0.680977 0.397658,0 0.70181,-0.296336 0.937455,-0.91336 0.133598,-0.34982 0.252737,-0.498502 0.379117,-0.473126 0.146021,0.02932 0.184298,0.192118 0.184298,0.783856 l 0,0.74685 0.346128,-0.03069 c 0.919724,-0.08156 1.100242,-0.108083 1.163066,-0.170907 0.03728,-0.03728 0.09639,-0.292726 0.131351,-0.567657 0.07914,-0.622283 0.230528,-0.843651 0.451529,-0.660237 0.08677,0.07201 0.157756,0.230986 0.157756,0.35328 0,0.351739 0.320784,0.879558 0.585645,0.963621 0.133126,0.04225 0.419252,0.04358 0.635833,0.003 0.373596,-0.07009 0.393876,-0.09875 0.395551,-0.558994 9.23e-4,-0.266815 0.04765,-0.557583 0.103732,-0.646152 0.140626,-0.222089 0.471381,-0.07116 0.471381,0.2151 0,0.364776 0.408482,0.695876 0.85851,0.695876 0.443425,0 0.506089,-0.06702 0.75519,-0.807631 0.211003,-0.627345 0.520721,-0.693589 0.809141,-0.173064 0.211476,0.38166 0.552424,0.512591 0.70556,0.270947 0.05422,-0.08556 0.09939,-0.342222 0.100358,-0.570349 0.0025,-0.593046 -0.315243,-0.842232 -1.084303,-0.850285 -0.363785,-0.0038 -0.696015,-0.07611 -0.819307,-0.178305 -0.152378,-0.126299 -0.5469,-0.177271 -1.487367,-0.192166 -0.703989,-0.01114 -1.383819,-0.02245 -1.510732,-0.02512 -0.126914,-0.0027 -0.879741,0.0022 -1.672951,0.01088 -0.793209,0.0087 -1.589307,-0.02586 -1.769108,-0.0767 -0.20231,-0.0572 -0.495311,-0.03685 -0.768746,0.05339 -0.395842,0.130641 -0.496708,0.119258 -0.968947,-0.10935 -0.301951,-0.146171 -0.68819,-0.240866 -0.904205,-0.221684 -0.2074,0.01842 -0.688608,-0.0032 -1.069348,-0.04805 -0.406693,-0.0479 -1.182539,-0.01947 -1.880792,0.06892 -1.171626,0.148321 -1.194111,0.146675 -1.580298,-0.115747 C 9.5803775,27.284293 9.4953462,27.282038 9.009275,27.582447 L 8.6236118,27.8208 8.4041713,27.45996 c -0.217314,-0.357345 -0.216929,-0.368319 0.039732,-1.132516 0.2035656,-0.606109 0.3228044,-0.7945 0.5557482,-0.878056 0.4540341,-0.16286 0.6892688,0.0901 0.5961771,0.641109 -0.040653,0.240624 -0.040767,0.491133 -2.539e-4,0.556686 0.1318451,0.213328 0.7609473,-0.217364 0.9386203,-0.642594 0.264595,-0.633267 0.576427,-0.64089 1.331629,-0.03255 0.283675,0.228509 0.331046,0.233973 0.649808,0.07495 0.232119,-0.115795 0.54159,-0.152521 0.952521,-0.113036 0.454213,0.04365 0.707722,0.0052 0.998883,-0.151642 0.345981,-0.186324 0.454526,-0.19364 0.958077,-0.06458 0.312339,0.08005 0.63477,0.103838 0.716515,0.05286 0.08174,-0.05098 0.901454,-0.100752 1.821577,-0.110612 0.920123,-0.0099 1.813784,-0.07426 1.985914,-0.143102 0.172129,-0.06885 1.153617,-0.1524 2.181082,-0.185676 1.600391,-0.05183 1.941921,-0.09623 2.383094,-0.309799 0.487232,-0.235864 0.532298,-0.239063 0.836493,-0.05937 0.176834,0.104459 0.42602,0.189925 0.553746,0.189925 0.127726,0 0.474473,0.103838 0.77055,0.230752 0.55752,0.23898 0.994295,0.294034 1.144195,0.144219 0.04762,-0.04759 0.432686,-0.09632 0.855703,-0.108291 0.423018,-0.01197 1.340234,-0.04122 2.038259,-0.06499 1.268365,-0.04321 1.269356,-0.04303 1.634136,0.294325 0.200752,0.185658 0.422396,0.302089 0.492542,0.258736 0.07015,-0.04335 0.259162,-0.338569 0.420035,-0.656036 0.209531,-0.41349 0.403026,-0.623396 0.682172,-0.74003 0.475724,-0.19877 0.584386,-0.354531 0.401261,-0.575182 -0.187785,-0.226268 -0.635355,-0.211878 -1.054383,0.0339 -0.338852,0.19875 -0.34791,0.197397 -0.579151,-0.08653 -0.220721,-0.271011 -0.309053,-0.290124 -1.461891,-0.316318 -1.47306,-0.03347 -1.98884,-0.03722 -2.40958,-0.01751 -0.174506,0.0082 -0.421122,0.0042 -0.548035,-0.0087 -0.126914,-0.01298 -0.422104,0.01312 -0.655979,0.058 -0.320743,0.06156 -0.549404,0.0215 -0.930591,-0.163033 -0.64858,-0.313972 -0.681563,-0.310781 -1.048895,0.101486 -0.351106,0.394057 -0.49426,0.421175 -0.86235,0.163353 -0.211382,-0.148057 -0.33055,-0.15851 -0.627388,-0.05503 -0.294386,0.102624 -0.475984,0.08835 -0.923526,-0.07258 -0.449322,-0.161574 -0.600444,-0.173247 -0.78123,-0.06034 -0.316704,0.197785 -0.535625,0.174818 -0.899749,-0.09439 -0.306486,-0.226595 -0.336725,-0.228002 -0.911423,-0.04239 -0.555296,0.179341 -0.626318,0.179212 -1.079092,-0.002 -0.320634,-0.128292 -0.801327,-0.192017 -1.420268,-0.188282 -0.514577,0.0031 -1.623701,-0.019 -2.464721,-0.04911 -0.84102,-0.03012 -1.654724,-0.007 -1.808233,0.05136 -0.203385,0.07733 -0.315979,0.06169 -0.415013,-0.05764 -0.07475,-0.09007 -0.319792,-0.198254 -0.544541,-0.240417 -0.323649,-0.06072 -0.533217,-0.0093 -1.007667,0.24738 -0.334233,0.180801 -0.681174,0.29252 -0.784853,0.252735 -0.205544,-0.07887 -0.38508,-0.797975 -0.252704,-1.012163 0.09478,-0.153356 1.192698,-0.06802 1.786042,0.138823 0.227679,0.07937 0.399177,0.08277 0.491506,0.0097 0.163202,-0.129084 1.449007,-0.283762 2.045511,-0.246069 0.649302,0.04103 0.935994,0.01943 1.730639,-0.130355 0.854138,-0.161004 1.303479,-0.17039 5.999546,-0.125328 1.871974,0.01796 3.881427,-0.0048 4.465451,-0.05066 1.312347,-0.102979 1.544148,-0.283314 1.625525,-1.264618 0.02908,-0.350671 0.09828,-0.66565 0.153786,-0.699952 0.148828,-0.09198 0.122649,-0.673117 -0.03754,-0.833305 -0.297208,-0.297208 -0.462557,-0.161216 -0.38221,0.314352 0.08627,0.510635 0.07782,0.518431 -0.955424,0.881612 -0.501512,0.17628 -0.651846,0.189026 -0.840428,0.07125 -0.180274,-0.112582 -0.328382,-0.11385 -0.688706,-0.0059 -0.416499,0.124786 -0.483652,0.114412 -0.724582,-0.11193 -0.311088,-0.292253 -0.569438,-0.317889 -0.769859,-0.0764 -0.176265,0.212387 -0.679481,0.21922 -0.951221,0.01292 -0.272192,-0.206647 -3.850194,-0.25106 -4.091509,-0.05079 -0.12667,0.105127 -0.254329,0.103892 -0.556517,-0.0054 -0.216041,-0.07812 -0.566107,-0.109164 -0.779527,-0.06913 -0.213061,0.03997 -0.798987,0.01366 -1.302057,-0.05847 -0.50307,-0.07213 -1.496985,-0.154754 -2.2087,-0.183617 -1.05467,-0.04277 -1.371833,-0.09838 -1.71466,-0.300655 -0.404885,-0.238888 -0.418418,-0.267814 -0.361513,-0.772675 0.08152,-0.723277 0.369726,-0.937417 1.261629,-0.937417 l 0.692574,0 -0.0731,0.490347 c -0.07287,0.48879 -0.07141,0.491239 0.457949,0.77104 0.5059,0.267401 0.548348,0.271955 0.896472,0.09617 0.200984,-0.101489 0.508204,-0.21581 0.68271,-0.254046 0.215952,-0.04732 0.317284,-0.142516 0.317284,-0.298076 0,-0.25402 -0.235659,-0.295794 -0.592202,-0.104978 -0.455008,0.243513 -1.087935,-0.504131 -0.653879,-0.772392 0.07614,-0.04706 2.436807,-0.09897 5.245935,-0.115369 2.809128,-0.0164 5.693246,-0.08093 6.409152,-0.143406 0.715905,-0.06247 2.195436,-0.09875 3.287846,-0.08061 1.835772,0.03048 2.014905,0.01503 2.365206,-0.203946 0.208453,-0.130308 0.940521,-0.514647 1.626818,-0.854085 0.922392,-0.456211 1.238204,-0.66705 1.21097,-0.808461 -0.02026,-0.105213 -0.327593,-0.390491 -0.682957,-0.633949 -0.608921,-0.417169 -0.675312,-0.436536 -1.153283,-0.336428 -0.452167,0.0947 -5.854797,0.0058 -9.564174,-0.157423 -0.666295,-0.02931 -1.58786,-0.06585 -2.047922,-0.08119 -0.46006,-0.01535 -0.836474,-0.05516 -0.836474,-0.08848 0,-0.06643 0.844201,-0.347511 1.043711,-0.347511 0.264485,0 1.379182,-0.601481 1.379182,-0.744195 0,-0.522517 -0.921729,-0.658751 -5.076539,-0.750324 -0.222098,-0.0049 -0.481694,-0.05832 -0.576879,-0.118712 -0.149435,-0.09482 -0.141558,-0.140146 0.05769,-0.33199 0.216091,-0.208064 0.498308,-0.226921 4.441972,-0.296806 2.316171,-0.04104 4.626573,-0.130428 5.134227,-0.198631 1.271586,-0.170837 1.986113,-0.230993 2.595957,-0.218553 1.269096,0.02589 2.51378,0.101808 2.899614,0.176865 0.26428,0.05141 0.447885,0.03483 0.497157,-0.04489 0.04555,-0.0737 0.448097,-0.126937 0.965478,-0.127677 1.028578,-0.0015 1.752673,-0.10184 1.752673,-0.242941 0,-0.05425 -0.194697,-0.227162 -0.432659,-0.38424 -0.38291,-0.252758 -0.565326,-0.287183 -1.586419,-0.299386 -1.202346,-0.01437 -1.793404,0.1 -2.140595,0.414203 -0.188613,0.170692 -0.22886,0.170041 -0.500736,-0.0081 -0.209209,-0.13708 -0.62525,-0.207427 -1.423111,-0.240632 -0.62011,-0.02581 -1.620705,-0.100958 -2.223544,-0.167004 -0.602839,-0.06605 -2.887281,-0.146026 -5.076539,-0.177734 -2.68164,-0.03884 -4.298644,-0.111766 -4.95557,-0.2234932 C 17.85257,9.8779824 17.194325,9.8401456 16.81504,9.8833932 l -0.640161,0.072994 0.217124,-0.2448368 c 0.119418,-0.1346603 0.316285,-0.2763092 0.437481,-0.3147754 0.154507,-0.049038 0.199353,-0.1361152 0.150073,-0.2913852 -0.06299,-0.1984579 -0.0096,-0.2214466 0.51437,-0.2214466 0.654942,0 0.794423,0.2135116 0.289708,0.4434747 -0.162219,0.073912 -0.262993,0.1860846 -0.223942,0.2492713 0.114646,0.1855007 0.3907,0.1324874 0.603347,-0.1158665 0.235925,-0.2755403 0.860533,-0.3092373 1.0693,-0.057688 0.245971,0.2963765 0.758309,0.2010705 1.372445,-0.2553041 0.404864,-0.3008622 0.54324,-0.4683783 0.464888,-0.562787 -0.154599,-0.1862806 0.349826,-0.3103696 0.558309,-0.1373443 0.118234,0.098125 0.25898,0.094398 0.561121,-0.014858 0.227252,-0.082175 0.749539,-0.1298407 1.196468,-0.1091937 0.436241,0.020153 0.8311,-0.00129 0.877466,-0.047659 0.146719,-0.1467186 0.39197,-0.091181 0.39197,0.088763 0,0.1205087 -0.131388,0.1774348 -0.43266,0.1874576 -0.400501,0.013324 -0.389781,0.020981 0.14422,0.1030225 0.317284,0.048746 0.714086,0.1427034 0.881781,0.2087946 0.167696,0.066091 0.414312,0.091554 0.548036,0.056585 0.260968,-0.068245 0.330825,-0.3343361 0.10733,-0.4088342 -0.07469,-0.024897 -0.09759,-0.1071025 -0.05088,-0.1826784 0.05683,-0.091953 0.473897,-0.1368263 1.260718,-0.135644 1.197095,0.0018 1.503776,0.074719 1.44148,0.3427445 -0.04569,0.1965833 0.70098,0.4079229 0.864276,0.2446267 0.08022,-0.080222 0.06996,-0.1755676 -0.03215,-0.2985966 -0.0825,-0.099408 -0.112294,-0.2184265 -0.06621,-0.2644856 0.04609,-0.046059 0.845253,-0.089163 1.775923,-0.095786 2.070638,-0.014736 2.295228,-0.085615 2.295228,-0.7243531 0,-0.4625001 -0.0035,-0.4661474 -0.512455,-0.5424781 -0.28184,-0.042267 -0.729863,-0.047047 -0.995598,-0.010624 -0.405287,0.055551 -7.503552,-0.093589 -10.632628,-0.2233997 -0.507654,-0.02106 -1.424797,-0.040375 -2.038096,-0.042922 -0.680363,-0.00283 -1.263353,-0.066971 -1.49539,-0.1645354 l -0.3803,-0.1599045 0.411327,-0.1718635 c 0.440246,-0.1839465 0.653706,-0.5987071 0.365123,-0.7094467 -0.09336,-0.035827 -0.400768,-0.065139 -0.683125,-0.065139 -0.568578,0 -0.722725,0.1721753 -0.510003,0.5696498 0.109793,0.2051516 0.07201,0.3105189 -0.250712,0.6991911 -0.362165,0.4361733 -0.643652,0.563489 -0.831196,0.3759461 -0.04722,-0.047218 -1.164545,-0.067951 -2.48295,-0.046072 L 10.958997,6.9457851 10.658941,6.6457293 C 10.291661,6.2784484 10.121585,6.2717644 9.6294278,6.6052693 9.2807158,6.8415699 9.1275441,6.8626621 7.9225097,6.8403172 7.1944035,6.8268159 6.3650441,6.8045401 6.0794888,6.7908157 5.7939335,6.7770913 5.0246974,6.8322345 4.3700751,6.9133562 3.3277535,7.0425223 3.0349605,7.0366225 2.0138383,6.8658788 1.3725302,6.7586444 0.7097404,6.6985239 0.54097213,6.7322776 0.22440215,6.7955915 -0.49693691,6.4515312 -0.49693691,6.2372215 c 0,-0.061514 0.18586214,-0.1467117 0.41302711,-0.189328 C 0.51917947,5.9347532 0.52995258,5.7103131 -0.03983863,5.1297382 -0.5589102,4.6008428 -0.52930271,4.4568018 0.08435486,4.5255348 c 0.2606864,0.029198 0.2819406,-0.00374 0.2586334,-0.400847 L 0.31759414,3.6920282 2.0736266,3.674843 C 3.0394444,3.665393 5.4650681,3.645411 7.4639016,3.630442 l 3.6342424,-0.027215 0.379085,0.3328403 c 0.208495,0.1830622 0.478672,0.3328402 0.600392,0.3328402 0.386926,0 0.809045,-0.2571513 0.809045,-0.4928633 0,-0.1975342 0.05294,-0.2151841 0.43266,-0.1442545 0.519946,0.097123 0.594741,0.1551654 0.374971,0.2909902 -0.09151,0.056556 -0.131184,0.1380258 -0.08817,0.1810439 0.11324,0.1132405 0.46145,-0.043764 0.382037,-0.1722568 -0.106783,-0.1727785 0.09898,-0.241019 1.115999,-0.3701143 1.007164,-0.1278445 1.040638,-0.1279152 2.38429,-0.00504 0.816102,0.074634 0.86075,0.094137 1.057593,0.4619752 0.113035,0.2112283 0.291065,0.4466051 0.395624,0.5230597 0.173798,0.1270851 0.167859,0.1672879 -0.06925,0.4687223 l -0.259353,0.3297143 0.369142,0.3298288 c 0.350377,0.3130622 0.424031,0.3298289 1.448887,0.3298289 0.727843,0 1.244283,-0.062566 1.584598,-0.1919721 0.422237,-0.1605567 0.920229,-0.188643 3.043124,-0.1716294 6.086119,0.048777 7.353819,-0.010983 7.418562,-0.3497131 0.02041,-0.1067678 -0.06059,-0.246409 -0.18,-0.3103137 C 32.16625,4.9057363 30.553043,4.8520987 28.223424,4.8404623 26.102153,4.8298667 23.821416,4.768019 23.15512,4.703023 22.488825,4.6380272 21.606199,4.5786609 21.19373,4.571098 20.508747,4.558538 20.440593,4.534861 20.406919,4.2977516 c -0.04385,-0.3087472 -0.04919,-0.3078835 0.495859,-0.080146 0.533591,0.222949 0.833968,0.067794 1.027407,-0.5306935 0.125311,-0.3877045 0.151941,-0.4021551 0.965674,-0.5240244 0.930011,-0.1392835 1.045989,-0.1987023 0.849637,-0.435292 -0.200239,-0.241274 0.07184,-0.3062547 1.236231,-0.2952488 l 1.000103,0.00945 -0.613925,0.2803315 c -0.446478,0.2038721 -0.603334,0.3350343 -0.575095,0.4808944 0.03469,0.1792027 0.212414,0.2005629 1.668724,0.2005629 1.390253,0 1.662745,0.029686 1.853315,0.2019078 0.274025,0.2476406 0.647584,0.2604707 0.839818,0.028844 0.079,-0.095185 0.270039,-0.1730638 0.424539,-0.1730638 0.417155,0 1.299128,-0.2415068 1.384106,-0.3790036 0.04075,-0.065929 -0.03581,-0.2088552 -0.17012,-0.317614 -0.134311,-0.108759 -0.211798,-0.2301484 -0.172191,-0.2697544 0.210088,-0.2100875 2.456446,0.049328 2.456446,0.2836776 0,0.058199 -0.259596,0.1058154 -0.57688,0.1058154 -0.432566,0 -0.576879,0.042744 -0.576879,0.1708656 0,0.093976 0.116818,0.1949998 0.259596,0.224497 0.653672,0.1350458 1.085479,0.1437967 1.297978,0.026305 0.126914,-0.070171 0.53819,-0.1548134 0.913946,-0.1880937 0.375757,-0.03328 0.700928,-0.1144595 0.722604,-0.1803979 C 35.178192,2.7539 34.16473,2.527721 33.6501,2.6100137 c -0.305704,0.048884 -0.457277,0.02999 -0.457277,-0.057 0,-0.071567 0.161711,-0.1301219 0.359358,-0.1301219 0.382181,0 1.515788,-0.5517775 1.427406,-0.6947826 -0.02886,-0.046703 -0.280837,-0.059176 -0.559938,-0.027717 -0.396373,0.044677 -0.57988,0.00376 -0.838298,-0.1868989 C 33.255655,1.2731942 32.603602,1.1983078 30.527987,1.1628256 30.190506,1.1570568 29.909191,1.0770784 29.754512,0.9429251 29.421922,0.65447183 28.593734,0.29172123 28.494447,0.39100964 c -0.04454,0.0445435 -0.01446,0.18752102 0.06686,0.31772792 0.08132,0.1302069 0.122403,0.26218355 0.0913,0.29328144 -0.178042,0.1780409 -1.155342,0.2363976 -3.480592,0.2078332 -2.443897,-0.030022 -2.627091,-0.047122 -2.861997,-0.26715047 -0.267534,-0.25058904 -0.784907,-0.4811982 -1.07957,-0.4811982 -0.12417,0 -0.159895,0.073096 -0.116614,0.238602 0.05121,0.19583746 -0.03061,0.27846678 -0.456496,0.46102517 -0.477031,0.2044792 -0.74858,0.218597 -3.365996,0.1749968 -1.565907,-0.026084 -2.860084,-0.051829 -2.875948,-0.057209 -0.01586,-0.00538 -0.02884,-0.086465 -0.02884,-0.1801874 0,-0.093722 -0.136503,-0.25984412 -0.30334,-0.36915978 C 13.789762,0.5372939 13.772956,0.53935812 13.567653,0.79289655 13.287505,1.1388642 12.662145,1.3096582 12.2497,1.1528467 12.025741,1.0676977 11.732891,1.0721716 11.244795,1.1681988 10.334876,1.3472145 7.0423474,1.2269296 6.271029,0.98649372 5.7691661,0.83005266 5.6771801,0.83075779 5.3625529,0.9934578 5.0029603,1.1794103 4.9355111,1.1789533 1.8107311,0.96939324 0.82298899,0.90315134 0.51289356,0.78850626 0.56876687,0.51022787 0.5854688,0.42704327 0.49529574,0.27986314 0.36838226,0.18316091 0.16042599,0.02470782 0.59010426,0.0069762 4.7178777,0.00366934 L 9.2981249,0 9.6093565,0.28843971 c 0.4241425,0.39308214 1.0111915,0.39322372 1.2686405,3.0574e-4 L 11.066789,6.1189945e-4 25.533395,0.00181591 40,0.00301993 40,15.69263 l 0,15.68961 -13.752806,0 c -9.122034,0 -13.714153,-0.03865 -13.638013,-0.114793 z m 20.062115,-1.143708 c 0.08403,-0.382567 -0.02826,-1.150032 -0.199899,-1.3663 -0.135648,-0.170917 -0.964658,-0.194277 -1.06616,-0.03004 -0.03881,0.0628 -0.01643,0.413252 0.04975,0.778787 0.202518,1.118712 1.015572,1.531521 1.216313,0.617554 z M 30.519028,29.653 c 0.150194,-0.838672 0.147634,-0.866322 -0.09867,-1.06577 -0.278816,-0.225771 -0.635787,-0.268514 -0.746496,-0.08938 -0.03922,0.06346 -0.246895,0.115376 -0.461503,0.115376 -0.460113,0 -0.590801,0.143068 -0.329094,0.360265 0.103156,0.08561 0.284533,0.381895 0.40306,0.658407 0.236449,0.551614 0.637181,0.954197 0.906088,0.910278 0.118016,-0.01928 0.221081,-0.299855 0.326619,-0.889172 z m 4.359795,-8.316492 c 0.134091,-0.04929 0.457641,-0.06094 0.719,-0.02588 0.381588,0.05118 0.490286,0.02442 0.551796,-0.13588 0.09028,-0.235261 -0.125482,-0.402781 -0.522033,-0.405314 -0.188338,-0.0012 -0.46968,-0.21341 -0.88189,-0.665178 -0.632352,-0.693036 -0.856744,-0.745448 -0.649787,-0.15177 0.09711,0.278575 0.08634,0.386155 -0.05259,0.525081 -0.223563,0.223564 -0.377855,0.220568 -0.635207,-0.01233 -0.269381,-0.243789 -0.561418,-0.125264 -0.561418,0.227851 0,0.174627 0.11482,0.354024 0.307312,0.480149 0.585791,0.383826 1.014454,0.424404 1.724816,0.163275 z m -3.235602,-0.235621 c 0.09945,-0.160924 -0.200862,-0.359553 -0.337314,-0.223101 -0.110983,0.110983 -0.0041,0.351376 0.156277,0.351376 0.05597,0 0.137434,-0.05772 0.181037,-0.128275 z m 0.91071,-1.672208 c 0.187479,-0.187479 0.153527,-0.530412 -0.08161,-0.824318 -0.262988,-0.328716 -0.89476,-0.02001 -0.89476,0.437216 0,0.120354 0.142778,0.296284 0.317284,0.390956 0.404187,0.219274 0.436145,0.219087 0.659087,-0.0039 z m -5.47603,-0.160907 c 0,-0.06346 -0.05192,-0.115376 -0.115376,-0.115376 -0.06346,0 -0.115376,0.05192 -0.115376,0.115376 0,0.06346 0.05192,0.115376 0.115376,0.115376 0.06346,0 0.115376,-0.05192 0.115376,-0.115376 z m 10.704448,-4.053408 c 0.0177,-0.08925 -0.04302,-0.265109 -0.134921,-0.390794 -0.165016,-0.22567 -0.170815,-0.225032 -0.464839,0.05119 -0.163755,0.15384 -0.297738,0.344729 -0.297738,0.4242 0,0.315684 0.833706,0.237103 0.897498,-0.08459 z M 25.674014,13.717881 c 0.118702,-0.190071 0.218391,-0.225212 0.460413,-0.162292 0.556016,0.144551 4.77368,0.171094 5.347229,0.03365 0.461318,-0.110547 0.582765,-0.100185 0.845797,0.07216 0.168923,0.110682 0.380816,0.172964 0.470875,0.138406 0.262209,-0.100619 0.189347,-0.582677 -0.133982,-0.88644 -0.295434,-0.277554 -0.316728,-0.279758 -2.766015,-0.286314 -1.357559,-0.0036 -2.502183,-0.0405 -2.543611,-0.08193 -0.04143,-0.04143 -0.22192,4.61e-4 -0.401093,0.09314 -0.206465,0.106768 -0.665898,0.168463 -1.254507,0.168463 -0.510805,0 -0.928737,0.02666 -0.928737,0.05925 0,0.03259 0.04633,0.149407 0.102961,0.259595 0.05663,0.110189 0.159354,0.34312 0.228278,0.517626 0.149636,0.378856 0.364893,0.406941 0.572392,0.07468 z m 12.133844,-0.391967 c 0,-0.09518 -0.04885,-0.173063 -0.108566,-0.173063 -0.145487,0 -0.249685,0.180169 -0.157508,0.272347 0.129935,0.129934 0.266074,0.07914 0.266074,-0.09928 z M 34.721553,7.1922693 c -0.07932,-0.032007 -0.209119,-0.032007 -0.288439,0 -0.07932,0.032007 -0.01442,0.058194 0.144219,0.058194 0.158642,0 0.223541,-0.026187 0.14422,-0.058194 z M 3.9701719,5.4375518 C 4.6820213,5.391138 5.3049695,5.3126372 5.3545011,5.2631057 5.4040327,5.2135741 5.3408019,5.0961018 5.2139882,5.0020563 4.8969782,4.7669605 1.8918435,4.8813789 1.4913486,5.1437932 0.88697415,5.5397946 1.4247092,5.6035201 3.9701719,5.4375518 Z M 15.857782,5.2784466 c -0.0573,-0.1725632 -0.626923,-0.3924164 -0.735476,-0.2838645 -0.04201,0.042009 -0.01071,0.1555138 0.06956,0.2522324 0.177661,0.2140688 0.735283,0.240557 0.665912,0.031632 z m 2.222235,-0.8380032 c 0.315998,-0.336365 0.236123,-0.4677128 -0.347563,-0.571536 -0.364914,-0.064909 -0.423267,-0.037086 -0.605724,0.2888117 -0.285144,0.5093152 -0.258643,0.5726921 0.239485,0.5726921 0.322261,0 0.514914,-0.078262 0.713802,-0.2899678 z m -9.9908864,0.10456 c 0.2614453,-0.100326 0.2255596,-0.3914716 -0.048252,-0.3914716 -0.1538345,0 -0.2307518,0.076917 -0.2307518,0.2307517 0,0.2540724 0.014286,0.2623017 0.2790035,0.1607199 z M 16.122767,4.4029689 c 0.326257,-0.264187 0.223096,-0.4484785 -0.306682,-0.5478652 -0.544015,-0.102058 -0.719629,0.074404 -0.463328,0.4655677 0.228799,0.3491924 0.415735,0.3691718 0.77001,0.082298 z M 34.625585,4.1988758 c 0.281387,-0.1079784 0.218051,-0.2411295 -0.180844,-0.380185 -0.478302,-0.166737 -0.675039,-0.1599387 -0.675039,0.023326 0,0.344174 0.426034,0.5218077 0.855883,0.3568589 z M 38.847836,1.9027166 C 39.144104,1.719613 38.708455,1.5882961 37.69783,1.5560728 c -1.101955,-0.035135 -1.611605,0.037798 -1.622956,0.2322534 -0.0037,0.063457 0.164045,0.1494428 0.372778,0.19108 0.465906,0.092938 2.216209,0.037013 2.400184,-0.07669 z M 6.6563682,29.882354 c 0,-0.126914 0.051919,-0.230752 0.1153759,-0.230752 0.063457,0 0.1153759,0.103838 0.1153759,0.230752 0,0.126913 -0.051919,0.230751 -0.1153759,0.230751 -0.063457,0 -0.1153759,-0.103838 -0.1153759,-0.230751 z m 2.2605935,-6.942198 c -0.2310482,-0.329868 -0.2355416,-0.628078 -0.010763,-0.714334 0.3440481,-0.132024 0.5331006,0.05082 0.4964371,0.480145 -0.042277,0.495051 -0.2371435,0.589014 -0.4856735,0.234189 z M -1.6489291,20.341809 c 0.00128,-0.40077 0.032824,-0.506787 0.1136092,-0.381781 0.1467161,0.227027 0.1467161,0.774644 0,0.865319 -0.07089,0.04381 -0.1146947,-0.142629 -0.1136092,-0.483538 z M 8.6754463,19.959262 C 7.9293904,19.84629 7.4685337,19.638945 7.150865,19.273332 6.7848679,18.852097 6.8123847,17.998638 7.1919629,17.998638 c 0.090629,0 0.2923722,-0.0836 0.4483191,-0.185783 0.1752505,-0.114828 0.3928129,-0.158356 0.569655,-0.113972 0.2444269,0.06135 0.2763796,0.120488 0.2192982,0.405896 -0.1094876,0.547438 0.3871596,0.702918 1.3120361,0.410747 0.3379867,-0.106772 0.4776187,0.218387 0.2173026,0.506033 -0.1028811,0.113682 -0.1870567,0.335001 -0.1870567,0.491819 0,0.301973 -0.1960056,0.571637 -0.3980468,0.547631 -0.06663,-0.0079 -0.3807404,-0.0537 -0.6980241,-0.101747 z M 4.3996958,19.83358 c -0.042982,-0.06955 0.00327,-0.207863 0.1027761,-0.307373 0.1490456,-0.149044 0.2124399,-0.154769 0.3597796,-0.03249 0.09837,0.08164 0.1788543,0.219957 0.1788543,0.307371 0,0.189728 -0.5277118,0.216458 -0.64141,0.03249 z M 3.1950915,19.6139 c -0.095185,-0.06151 -0.341801,-0.112638 -0.5480354,-0.113609 -0.4161185,-0.002 -0.4753044,-0.16117 -0.1808642,-0.486523 0.336266,-0.371571 0.084904,-0.764045 -0.791199,-1.23537 C 1.2514074,17.550518 0.86450551,17.323296 0.81521093,17.273461 0.68179648,17.138583 0.75947422,16.38286 0.93208186,16.136428 1.0525705,15.964406 1.0551361,15.813496 0.94494996,15.379538 0.8692553,15.081422 0.76048076,14.826437 0.7032287,14.812903 c -0.0572521,-0.01353 -0.24687232,-0.0561 -0.42137836,-0.09458 -0.17450603,-0.03849 -0.31728369,-0.145041 -0.31728369,-0.236785 0,-0.322286 0.43350517,-0.40563 1.92464555,-0.370021 l 1.4789432,0.03532 -0.03795,0.397174 c -0.020872,0.218444 -0.062622,1.053569 -0.092778,1.855833 -0.051162,1.361137 -0.036452,1.496753 0.2200197,2.028393 0.4190921,0.868736 0.4334298,0.934904 0.2436922,1.124642 -0.2050233,0.205023 -0.2709307,0.212971 -0.5060482,0.06103 z m 7.9897805,-0.03353 c 0.111049,-0.09073 0.201908,-0.217792 0.201908,-0.282347 0,-0.403692 0.820986,-0.46253 0.971751,-0.06964 0.109633,0.285698 -0.05359,0.384589 -0.749835,0.454305 -0.554739,0.05555 -0.602824,0.04394 -0.423824,-0.102316 z m -0.263654,-0.83668 c -0.108633,-0.130894 -0.113662,-0.21198 -0.01902,-0.306625 0.152882,-0.152882 0.484579,0.07002 0.484579,0.325642 0,0.213428 -0.282217,0.2019 -0.465562,-0.01902 z M 10.8099,17.998638 c 0,-0.06346 0.05498,-0.115376 0.122186,-0.115376 0.0672,0 0.0901,0.05192 0.05088,0.115376 -0.03922,0.06346 -0.0942,0.115376 -0.122185,0.115376 -0.02798,0 -0.05088,-0.05192 -0.05088,-0.115376 z M -1.6489291,15.489212 c 0.0012,-0.917907 0.037882,-1.299782 0.1136092,-1.182603 0.061513,0.09519 0.1126375,0.256677 0.1136092,0.358871 9.714e-4,0.102195 0.1272121,0.370663 0.2805344,0.596595 0.27286063,0.402083 0.27413085,0.414984 0.059944,0.60882 -0.1203528,0.108917 -0.2515764,0.372622 -0.291608,0.586008 -0.14926,0.795624 -0.2778,0.345092 -0.2760892,-0.967691 z m 1.67118369,0.778787 c -0.03921845,-0.06346 -0.03913169,-0.167435 1.9614e-4,-0.231063 0.08437312,-0.136524 0.51899536,0.06037 0.51899536,0.235122 0,0.147076 -0.42785256,0.143731 -0.5191915,-0.0041 z m -0.69225533,-0.692255 c -0.0392184,-0.06346 0.0127007,-0.115376 0.11537589,-0.115376 0.10267519,0 0.15459434,0.05192 0.11537589,0.115376 -0.0392185,0.06346 -0.0911376,0.115376 -0.11537589,0.115376 -0.0242383,0 -0.0761575,-0.05192 -0.11537589,-0.115376 z M 20.457646,14.455073 c -0.03366,-0.03366 -0.920193,-0.05569 -1.970076,-0.04896 -1.049881,0.0067 -1.908875,-0.03251 -1.908875,-0.08719 0,-0.262926 0.366018,-0.382592 0.950979,-0.310915 0.333627,0.04088 1.306362,0.02406 2.16163,-0.03738 1.174602,-0.08438 1.575651,-0.07835 1.639302,0.02464 0.04635,0.07499 0.04399,0.176627 -0.0052,0.225856 -0.127229,0.12723 -0.794524,0.30714 -0.867717,0.233947 z M 8.5792997,14.345068 c -0.1857764,-0.185776 -0.039017,-0.269088 0.4711182,-0.267444 0.655041,0.0021 0.9973341,0.159123 0.5866328,0.269091 -0.3571008,0.09562 -0.9614295,0.09467 -1.057751,-0.0016 z m 6.3154053,-0.08331 c -0.07522,-0.196027 0.02587,-0.416653 0.190913,-0.416653 0.145505,0 0.139212,0.428944 -0.0076,0.519696 -0.06391,0.03949 -0.146384,-0.0069 -0.183288,-0.103043 z m -7.3369626,-0.03396 c 0.083287,-0.03333 0.1827986,-0.02923 0.2211371,0.0091 0.038338,0.03834 -0.029806,0.06561 -0.1514308,0.0606 -0.1344064,-0.0055 -0.1617455,-0.03288 -0.069706,-0.06971 z m -9.2084382,-1.875766 c 0,-0.823487 0.078558,-0.963778 0.353903,-0.632008 0.1187372,0.143069 0.1217854,0.229862 0.014127,0.40225 -0.075503,0.1209 -0.1372783,0.373215 -0.1372783,0.560701 0,0.187487 -0.051919,0.372972 -0.1153759,0.412191 -0.072755,0.04497 -0.1153759,-0.229555 -0.1153759,-0.743134 z m 3.172837,0.0039 c -0.5201793,-0.06168 -0.57687949,-0.09676 -0.57687949,-0.356846 0,-0.382908 0.41469779,-0.44507 0.82357159,-0.12345 0.2979652,0.234379 0.7356888,0.314057 0.8880891,0.161657 C 2.8191392,11.875074 2.344008,11.53758 1.953419,11.53758 c -0.3340603,0 -0.3848754,-0.03256 -0.3151561,-0.201908 0.223971,-0.544039 0.2055268,-0.603567 -0.2468228,-0.796613 -0.61761035,-0.263573 -2.14668099,-0.397204 -2.7248522,-0.238134 l -0.3172837,0.08729 0,-1.2713332 c 0,-1.3043116 0.1234902,-1.6134571 0.3662882,-0.9169664 0.201565,0.5782098 0.94140601,0.729602 1.85236292,0.3790454 C 0.8389306,8.4746944 1.1182804,8.318937 1.1887329,8.2328442 1.3251536,8.066138 2.6243807,8.0140887 3.2960454,8.1484217 c 0.3178669,0.063573 0.3605497,0.1179471 0.3605497,0.4593054 0,0.3286238 0.047996,0.3977122 0.3172837,0.4567181 0.174506,0.038237 0.3951624,0.095793 0.4903475,0.1279011 0.095185,0.032108 0.6143766,0.054321 1.1537589,0.049362 0.9094545,-0.00836 1.7754682,0.1101091 1.9292838,0.2639246 0.035744,0.035744 -0.00113,0.1446597 -0.081947,0.2420355 -0.080815,0.097376 -0.1910969,0.4134296 -0.2450714,0.7023406 -0.1117967,0.598419 0.033126,0.929074 0.6371296,1.453674 0.195298,0.169623 0.32854,0.334954 0.2960931,0.3674 -0.032447,0.03245 -0.787003,0.07538 -1.6767914,0.09541 -1.3879575,0.03124 -1.6617453,0.0077 -1.9271395,-0.165949 -0.3173776,-0.20762 -0.6437441,-0.179035 -1.7664576,0.154721 -0.1948756,0.05793 -0.4285117,0.09717 -0.5191915,0.08721 -0.09068,-0.01 -0.4244682,-0.04891 -0.7417518,-0.08653 z M 0.01732747,9.4687946 c 0.0365085,-0.059072 0.01314846,-0.1403019 -0.05191131,-0.180511 -0.15170718,-0.09376 -0.57772896,0.039204 -0.57772896,0.1803137 0,0.1400244 0.54311712,0.1401947 0.62964027,1.961e-4 z M 9.7281449,12.337678 C 8.5664296,12.23474 8.33797,12.111416 8.6799331,11.771847 8.9303626,11.52317 9.8046243,11.481657 13.05973,11.563875 l 1.615263,0.0408 -6.93e-4,0.340418 c -5.77e-4,0.284484 -0.05746,0.352559 -0.346127,0.414309 -0.476854,0.102009 -3.357155,0.08841 -4.6000143,-0.02172 z M 11.790595,10.042447 C 11.213099,9.6954752 10.838126,9.6540044 10.69508,9.9212862 10.546903,10.198158 10.204115,10.223223 9.9959556,9.9724063 9.9134861,9.8730371 9.6977549,9.7150686 9.5165523,9.621365 8.9876808,9.347875 9.2490817,9.2300706 10.384812,9.2300706 c 0.583648,0 1.242553,-0.054941 1.464233,-0.1220922 0.221679,-0.067151 0.705094,-0.1675411 1.074255,-0.2230897 1.150338,-0.1730948 1.326712,-0.5778252 0.251806,-0.5778252 -0.341522,0 -0.653037,-0.051919 -0.692255,-0.1153759 -0.03922,-0.063457 -0.0033,-0.1154031 0.07972,-0.1154363 0.08307,-3.33e-5 0.764267,-0.015878 1.513779,-0.03521 1.401639,-0.036152 1.713173,0.053021 1.252901,0.3586296 -0.339972,0.2257327 -0.3149,0.3364046 0.09669,0.4268049 0.360243,0.079123 0.369441,0.2882185 0.01268,0.2882185 -0.175142,0 -0.82082,0.801528 -0.821584,1.0198937 -1.15e-4,0.0419 -0.558277,0.0851 -1.240291,0.096 -1.014123,0.01621 -1.303079,-0.01806 -1.586152,-0.188139 z m 7.595818,-0.9305459 c -0.137357,-0.053821 -0.293115,-0.1699839 -0.346128,-0.2581398 -0.05301,-0.088156 -0.200223,-0.2075589 -0.327136,-0.26534 -0.173361,-0.078928 -0.04512,-0.1141655 0.515632,-0.141681 0.783562,-0.038449 1.272694,0.033266 1.272694,0.1865972 0,0.3634946 -0.672321,0.6520423 -1.115062,0.4785636 z M 7.4063115,7.84556 c -0.039219,-0.063457 0.00657,-0.1153759 0.1017576,-0.1153759 0.095185,0 0.2051516,0.051919 0.2443701,0.1153759 0.039218,0.063457 -0.00657,0.1153759 -0.1017576,0.1153759 -0.095185,0 -0.2051516,-0.051919 -0.2443701,-0.1153759 z M -1.6506958,6.4610494 c 0,-0.4441971 0.049479,-0.8076312 0.1099528,-0.8076312 0.1021872,0 0.3494532,0.7014144 0.3509073,0.9954118 3.539e-4,0.071551 0.078522,0.1947263 0.1737073,0.2737229 0.27844364,0.2310878 0.20175033,0.3461277 -0.2307518,0.3461277 l -0.4038156,0 0,-0.8076312 z m 0.017864,-2.9036264 0.017864,-1.1922174 0.088176,0.923007 c 0.048497,0.5076539 0.105357,1.0212574 0.1263563,1.1413411 0.020999,0.1200837 -0.026718,0.2412283 -0.1060394,0.2692104 C -1.6165476,4.737594 -1.6464661,4.4673484 -1.6328323,3.557423 Z M 4.9257299,2.5382694 c 0,-0.1385925 0.5427969,-0.1385925 0.8653192,0 0.1736207,0.074607 0.095065,0.1011652 -0.3172837,0.1072667 -0.3014196,0.00446 -0.5480355,-0.04381 -0.5480355,-0.1072667 z M 16.867134,2.3075176 c 0.03922,-0.063457 0.4607,-0.1153758 0.936625,-0.1153758 0.5475,0 0.83913,0.042376 0.794014,0.1153758 -0.03922,0.063457 -0.4607,0.1153759 -0.936625,0.1153759 -0.5475,0 -0.83913,-0.042376 -0.794014,-0.1153759 z M -1.6506958,0.63456735 -1.6506958,0 -1.0449724,0.01338376 c 0.3331479,0.0073611 0.51006695,0.03805157 0.39315346,0.06820113 -0.19939256,0.05141918 -0.1976045,0.06529962 0.028844,0.22391028 0.35937518,0.25171614 0.29914435,0.3564899 -0.30662152,0.53338025 C -1.231016,0.92689323 -1.4646522,1.0597089 -1.448788,1.1340213 c 0.015864,0.074312 -0.023075,0.1351134 -0.086532,0.1351134 -0.063457,0 -0.1153759,-0.2855553 -0.1153759,-0.63456735 z"
         id="path4223"
         inkscape:connector-curvature="0" />
    </g>
  </g>
</svg>
