<?xml version="1.0" encoding="UTF-8" standalone="no"?>
<svg
   xmlns:dc="http://purl.org/dc/elements/1.1/"
   xmlns:cc="http://creativecommons.org/ns#"
   xmlns:rdf="http://www.w3.org/1999/02/22-rdf-syntax-ns#"
   xmlns:svg="http://www.w3.org/2000/svg"
   xmlns="http://www.w3.org/2000/svg"
   xmlns:sodipodi="http://sodipodi.sourceforge.net/DTD/sodipodi-0.dtd"
   xmlns:inkscape="http://www.inkscape.org/namespaces/inkscape"
   width="584"
   height="322"
   id="svg1952"
   sodipodi:version="0.32"
   inkscape:version="1.0.1 (3bc2e813f5, 2020-09-07, custom)"
   sodipodi:docname="sv-splash.svg"
   inkscape:export-filename="/tmp/sv-splash@2x.png"
   inkscape:export-xdpi="192"
   inkscape:export-ydpi="192"
   version="1.1">
  <defs
     id="defs1954" />
  <sodipodi:namedview
     id="base"
     pagecolor="#ffffff"
     bordercolor="#666666"
     borderopacity="1.0"
     inkscape:pageopacity="0.0"
     inkscape:pageshadow="2"
     inkscape:zoom="0.99999999"
     inkscape:cx="309.07758"
     inkscape:cy="197.35485"
     inkscape:current-layer="layer1"
     inkscape:document-units="px"
     showgrid="true"
     inkscape:window-width="1168"
     inkscape:window-height="609"
     inkscape:window-x="-159"
     inkscape:window-y="100"
     inkscape:window-maximized="0"
     fit-margin-top="0"
     fit-margin-left="0"
     fit-margin-right="0"
     fit-margin-bottom="0"
     inkscape:snap-bbox="true"
     inkscape:document-rotation="0">
    <inkscape:grid
       type="xygrid"
       id="grid6046"
       originx="-26"
       originy="-103.00001" />
  </sodipodi:namedview>
  <metadata
     id="metadata1957">
    <rdf:RDF>
      <cc:Work
         rdf:about="">
        <dc:format>image/svg+xml</dc:format>
        <dc:type
           rdf:resource="http://purl.org/dc/dcmitype/StillImage" />
        <dc:title />
      </cc:Work>
    </rdf:RDF>
  </metadata>
  <g
     id="layer1"
     inkscape:label="Layer 1"
     inkscape:groupmode="layer"
     transform="translate(-26,-55)">
    <rect
       style="fill:#ffffff;fill-opacity:1;stroke:#000000;stroke-width:5.70384979;stroke-linejoin:miter;stroke-miterlimit:4;stroke-dasharray:none;stroke-opacity:1"
       id="rect3849"
       width="578.29614"
       height="316.29614"
       x="28.851925"
       y="57.851925" />
    <g
       id="g898"
       transform="translate(0,14)">
      <g
         style="font-style:normal;font-variant:normal;font-weight:normal;font-stretch:normal;font-size:32px;line-height:125%;font-family:Korataki;text-align:start;writing-mode:lr-tb;text-anchor:start;fill:#000000;fill-opacity:1;stroke:none;stroke-width:1px;stroke-linecap:butt;stroke-linejoin:miter;stroke-opacity:1"
         id="text2049">
        <path
           d="m 258.132,322.832 q 0.672,1.216 1.696,1.216 h 1.728 q 0.448,0 0.864,-0.256 0.448,-0.288 0.8,-0.928 L 273.78,304.4 h 7.2 l -13.376,23.456 Q 266.356,330 263.7,330 h -6.048 q -1.536,0 -2.368,-0.544 -0.8,-0.544 -1.376,-1.632 L 240.5,304.4 h 7.232 z"
           id="path4229" />
        <path
           d="m 282.6,304.4 h 6.24 V 330 h -6.24 z"
           id="path4231" />
        <path
           d="m 328.004,304.4 v 5.952 h -28.256 q -1.472,0 -1.472,0.928 v 1.984 q 0,0.928 1.472,0.928 h 21.376 q 7.68,0 7.68,6.112 v 3.488 q 0,6.208 -7.68,6.208 h -28.256 v -5.952 h 28.256 q 1.44,0 1.44,-0.896 v -2.08 q 0,-0.928 -1.44,-0.928 h -21.376 q -7.712,0 -7.712,-5.472 v -4.032 q 0,-6.24 7.712,-6.24 z"
           id="path4233" />
        <path
           d="m 362.151,324.048 q 1.44,0 1.44,-0.896 V 304.4 h 6.272 v 19.392 q 0,6.208 -7.712,6.208 h -22.464 q -7.712,0 -7.712,-6.272 V 304.4 h 6.24 v 18.688 q 0,0.96 1.472,0.96 z"
           id="path4235" />
        <path
           d="M 401.566,324.976 H 380.798 L 377.982,330 h -7.232 l 13.408,-23.424 q 0.576,-1.088 1.376,-1.632 0.832,-0.544 2.368,-0.544 h 6.464 q 2.656,0 3.904,2.144 L 411.646,330 h -7.2 z m -17.728,-5.632 h 14.656 l -4.448,-7.808 q -0.352,-0.64 -0.8,-0.896 -0.416,-0.288 -0.864,-0.288 h -2.464 q -1.024,0 -1.696,1.216 z"
           id="path4237" />
        <path
           d="m 419.562,330 q -7.712,0 -7.712,-6.208 V 304.4 h 6.272 v 18.432 q 0,1.216 1.44,1.216 h 27.904 V 330 Z"
           id="path4239" />
        <path
           d="m 450.0375,304.4 h 6.24 V 330 h -6.24 z"
           id="path4241" />
        <path
           d="m 495.4415,304.4 v 5.952 h -28.256 q -1.472,0 -1.472,0.928 v 1.984 q 0,0.928 1.472,0.928 h 21.376 q 7.68,0 7.68,6.112 v 3.488 q 0,6.208 -7.68,6.208 h -28.256 v -5.952 h 28.256 q 1.44,0 1.44,-0.896 v -2.08 q 0,-0.928 -1.44,-0.928 h -21.376 q -7.712,0 -7.712,-5.472 v -4.032 q 0,-6.24 7.712,-6.24 z"
           id="path4243" />
        <path
           d="M 535.3805,324.048 V 330 h -28.256 q -7.712,0 -7.712,-6.272 V 310.64 q 0,-6.24 7.712,-6.24 h 28.16 v 5.952 h -28.16 q -1.44,0 -1.44,1.248 v 2.592 h 29.408 v 5.952 h -29.408 v 2.624 q 0,1.28 1.44,1.28 z"
           id="path4245" />
        <path
           d="m 538.35,304.4 h 30.816 q 7.392,0 7.392,6.24 v 2.304 q 0,6.496 -7.392,6.496 h -2.144 L 577.614,330 h -8.64 l -9.952,-10.24 H 544.59 V 330 h -6.24 z m 6.24,5.952 v 4.064 h 24.768 q 1.248,0 1.248,-1.024 v -2.048 q 0,-0.992 -1.44,-0.992 z"
           id="path4247" />
      </g>
      <g
         style="font-style:normal;font-variant:normal;font-weight:normal;font-stretch:normal;font-size:32px;line-height:125%;font-family:Korataki;text-align:start;writing-mode:lr-tb;text-anchor:start;fill:#000000;fill-opacity:1;stroke:none;stroke-width:1px;stroke-linecap:butt;stroke-linejoin:miter;stroke-opacity:1"
         id="text2049-6">
        <path
           d="m 94.597563,304.25049 v 5.952 h -28.256 q -1.472,0 -1.472,0.928 v 1.984 q 0,0.928 1.472,0.928 h 21.376 q 7.68,0 7.68,6.112 v 3.488 q 0,6.208 -7.68,6.208 h -28.256 v -5.952 h 28.256 q 1.44,0 1.44,-0.896 v -2.08 q 0,-0.928 -1.44,-0.928 h -21.376 q -7.712,0 -7.712,-5.472 v -4.032 q 0,-6.24 7.712,-6.24 z"
           id="path4161" />
        <path
           d="m 108.20056,329.85049 q -9.631997,0 -9.631997,-8.128 v -9.312 q 0,-8.16 9.631997,-8.16 h 19.776 q 9.632,0 9.632,8.16 v 9.312 q 0,8.128 -9.632,8.128 z m 0,-19.648 q -3.36,0 -3.36,2.208 v 9.312 q 0,2.176 3.36,2.176 h 19.776 q 3.36,0 3.36,-2.176 v -9.312 q 0,-2.208 -3.36,-2.208 z"
           id="path4163" />
        <path
           d="m 150.86656,312.12249 q -0.672,-0.8 -1.664,-1.344 -0.96,-0.576 -1.984,-0.576 h -0.32 v 19.648 h -6.08 v -25.6 h 6.4 q 2.56,0 4.288,0.832 1.76,0.832 3.36,2.624 l 12.384,14.272 q 0.672,0.768 1.632,1.344 0.96,0.576 1.984,0.576 h 0.32 v -19.648 h 6.112 v 25.6 h -6.432 q -2.656,0 -4.512,-0.864 -1.824,-0.864 -3.392,-2.752 z"
           id="path4165" />
        <path
           d="m 180.50606,304.25049 h 6.24 v 25.6 h -6.24 z"
           id="path4167" />
        <path
           d="m 226.93406,323.89849 v 5.952 h -29.216 q -7.712,0 -7.712,-6.272 v -13.088 q 0,-6.24 7.712,-6.24 h 29.12 v 5.952 h -29.12 q -1.44,0 -1.44,1.248 v 11.168 q 0,1.28 1.44,1.28 z"
           id="path4169" />
      </g>
    </g>
    <g
       id="g903"
       transform="translate(0,6)">
      <path
         inkscape:connector-curvature="0"
         style="fill:none;fill-rule:evenodd;stroke:#d45500;stroke-width:7.533px;stroke-linecap:butt;stroke-linejoin:miter;stroke-opacity:1"
         d="M 228.08326,185.35787 H 405.82221"
         id="path4036-8"
         sodipodi:nodetypes="cc" />
      <path
         style="fill:none;fill-rule:evenodd;stroke:#000000;stroke-width:10.2148;stroke-linecap:butt;stroke-linejoin:miter;stroke-miterlimit:1.4;stroke-dasharray:none;stroke-dashoffset:0;stroke-opacity:1;marker-start:none;marker-mid:none;marker-end:none"
         d="m 230.22324,185.36149 c 21.35147,0 23.70274,-0.0889 23.70274,-0.0889 2.72055,1.47458 7.3672,-9.99457 10.69611,-23.58554 4.24636,-17.33645 7.04434,-34.41874 10.97672,16.81359 7.54151,99.85372 10.2207,40.80515 15.40785,4.97954 11.95179,-115.751142 13.16897,-72.23788 15.70059,-47.9004 9.7346,120.36111 9.31463,147.33484 14.51805,107.36073 3.867,-29.7067 15.37569,-154.929464 17.43936,-120.41046 14.35338,137.19844 16.91837,129.1049 21.32774,93.8454 5.05645,-29.54865 8.57895,-50.79293 10.86839,-59.90364 4.13921,-16.4718 9.00744,13.2684 9.00744,13.2684 5.13177,15.2598 8.62517,16.08942 8.62517,16.08942 l 19.30464,0.1155"
         id="path3783-4"
         sodipodi:nodetypes="ccscccsccsccc"
         inkscape:connector-curvature="0" />
      <rect
         style="fill:none;stroke:#d45500;stroke-width:15.066;stroke-linejoin:miter;stroke-miterlimit:4;stroke-dasharray:none;stroke-opacity:1"
         id="rect3775-0"
         width="188.36205"
         height="187.68933"
         x="224.90086"
         y="91.176857" />
    </g>
  </g>
</svg>
